<svg xmlns="http://www.w3.org/2000/svg" viewBox="0 0 171.3 60.8"><path fill="none" d="M.8 32.9L27.3 27l29.6 29.7-28.2 4.1zm106.5-7.1l33.4-10.1 30.6 31.8-37 5.3zM25 10.9l20-4.4 38.8 39.4-21.2 3.2z"/><path fill="#fff" d="M137.1 14.4h-.1c.1-.4.1-.8.1-1.2 0-4.4-3.6-8-8-8-3.6 0-6.7 2.4-7.7 5.7-1-1.2-2.5-1.9-4.2-1.9-3 0-5.5 2.5-5.5 5.5h-1.1c-3.3 0-6 2.7-6 6s2.7 6 6 6H137c3.3 0 6-2.7 6-6s-2.6-6.1-5.9-6.1zM23.6 25.3c0-2.4-2-4.4-4.4-4.4-1.1 0-2.2.4-2.9 1.1-.9-2.4-3.2-4.1-6-4.1C6.8 18 4 20.8 4 24.3c0 .4 0 .7.1 1-2.3.4-4.1 2.4-4.1 4.8 0 2.7 2.2 4.8 4.8 4.8h18.8c2.7 0 4.8-2.2 4.8-4.8 0-2.6-2.1-4.8-4.8-4.8z"/><path fill="#DFF2F6" d="M42.5 5.5h-1.1c-.3-3.1-2.9-5.5-6-5.5-3.2 0-5.7 2.4-6 5.5h-1.1c-2 0-3.6 1.6-3.6 3.6s1.6 3.6 3.6 3.6h14.2c2 0 3.6-1.6 3.6-3.6s-1.6-3.6-3.6-3.6z"/></svg>