<svg xmlns="http://www.w3.org/2000/svg" viewBox="0 0 99.1 123.5"><path fill="#3C3666" d="M8.3 75.5c-4.6 0-8.3 3.7-8.3 8.3h3.7c0-2.5 2-4.5 4.5-4.5s4.5 2 4.5 4.5-2 4.5-4.5 4.5V92c4.6 0 8.3-3.7 8.3-8.3 0-4.5-3.7-8.2-8.2-8.2z"/><path fill="#87489C" d="M16.5 58.6H8.3l-2.7 2.7 2.7 2.6h8.2l2.6-2.6z"/><path fill="#5F2E76" d="M16.5 63.9l2.6-2.6H5.6l2.7 2.6z"/><path fill="#87489C" d="M16.5 63.8H8.3l-2.7 2.6L8.3 69h8.2l2.6-2.6z"/><path fill="#5F2E76" d="M16.5 69l2.6-2.6H5.6L8.3 69z"/><path fill="#87489C" d="M16.5 68.9H8.3l-2.7 2.6 2.7 2.6h8.2l2.6-2.6z"/><path fill="#5F2E76" d="M16.5 74.1l2.6-2.6H5.6l2.7 2.6z"/><path fill="#EDB634" d="M8.3 74.1v4.1c0 2.3 1.9 4.1 4.1 4.1 2.3 0 4.1-1.8 4.1-4.1v-4.1H8.3z"/><circle fill="#3C3666" cx="12.4" cy="78.2" r="1.5"/><path fill="#3C3666" d="M90.8 75.5c4.6 0 8.3 3.7 8.3 8.3h-3.7c0-2.5-2-4.5-4.5-4.5s-4.5 2-4.5 4.5 2 4.5 4.5 4.5V92c-4.6 0-8.3-3.7-8.3-8.3 0-4.5 3.7-8.2 8.2-8.2z"/><path fill="#87489C" d="M82.5 58.6h8.3l2.6 2.7-2.6 2.6h-8.3l-2.6-2.6z"/><path fill="#5F2E76" d="M82.5 63.9l-2.6-2.6h13.5l-2.6 2.6z"/><path fill="#87489C" d="M82.5 63.8h8.3l2.6 2.6-2.6 2.6h-8.3l-2.6-2.6z"/><path fill="#5F2E76" d="M82.5 69l-2.6-2.6h13.5L90.8 69z"/><path fill="#87489C" d="M82.5 68.9h8.3l2.6 2.6-2.6 2.6h-8.3l-2.6-2.6z"/><path fill="#5F2E76" d="M82.5 74.1l-2.6-2.6h13.5l-2.6 2.6z"/><path fill="#EDB634" d="M90.8 74.1v4.1c0 2.3-1.9 4.1-4.1 4.1-2.3 0-4.1-1.8-4.1-4.1v-4.1h8.2z"/><circle fill="#3C3666" cx="86.7" cy="78.2" r="1.5"/><path fill="#5F2E76" d="M60.7 11.7V5.8c0-3.2-2.6-5.8-5.8-5.8H43.6c-3.2 0-5.8 2.6-5.8 5.8v5.9h22.9z"/><path fill="#CE3C27" d="M45.4 11.1h7.5v14.8h-7.5z"/><path fill="#5F2E76" d="M40.3 48.9H58v6.7H40.3z"/><path fill="#392364" d="M38.9 36.7l-22 21.7-9.8-9.7 22-21.7z"/><path fill="#BB55A0" d="M36.6 29.5h14.7v21.2H36.6z"/><path fill="#87489C" d="M49.2 29.5h12.6v21.2H49.2z"/><path fill="#171233" d="M48.1 22.3h13.1v4.4H48.1z"/><path fill="#3F3E68" d="M37.2 22.3h12v4.4h-12z"/><path fill="#5F2E76" d="M49.2 40.4V29.5H36.6V46zm12.6-10.9H49.2v11L61.8 46z"/><ellipse fill="#7E72B5" cx="12.4" cy="53.3" rx="7" ry="6.9"/><ellipse fill="#EDB634" cx="12.4" cy="53.3" rx="3.8" ry="3.7"/><path fill="#392364" d="M60.1 36.7l22 21.7 9.9-9.7L69.9 27z"/><ellipse fill="#7E72B5" cx="86.6" cy="53.3" rx="7" ry="6.9"/><ellipse fill="#EDB634" cx="86.6" cy="53.3" rx="3.8" ry="3.7"/><path fill="#AE71B0" d="M69.7 26.7v20.1l-20.5-9.1-2.1-11z"/><path fill="#C7A2CC" d="M28.7 26.7v20.1l20.5-9.1v-11z"/><path fill="#BB55A0" d="M36.6 54.3h12.6v11H36.6z"/><path fill="#87489C" d="M49.2 54.3h12.6v11H49.2z"/><path fill="#392364" d="M20.2 97.6h11.4v18.6H20.2z"/><path fill="#3C3666" d="M31 67.1h13.1v29.4H31z"/><path fill="#AA88B7" d="M45.8 91.4c-1.4-3.4-4.8-5.8-8.7-5.8-3.9 0-7.3 2.4-8.7 5.8h17.4z"/><path fill="#171233" d="M25.1 90.8h20.4v31H25.1z"/><path fill="#584A71" d="M24 90.8h22.6V96H24zm0 9.2h22.6v5.2H24zm0 9.2h22.6v5.2H24zm0 9.1h22.6v5.2H24z"/><path fill="#C7A2CC" d="M28.7 64h20.5v8.4H28.7z"/><path fill="#392364" d="M66.7 97.6h11.4v18.6H66.7z"/><path fill="#3D2665" d="M54.2 67.1h13.1v29.4H54.2z"/><path fill="#A175A1" d="M52.6 91.4c1.4-3.4 4.8-5.8 8.7-5.8 3.9 0 7.3 2.4 8.7 5.8H52.6z"/><path fill="#171233" d="M52.9 90.8h20.4v31H52.9z"/><path fill="#584A71" d="M51.8 90.8h22.6V96H51.8zm0 9.2h22.6v5.2H51.8zm0 9.2h22.6v5.2H51.8zm0 9.1h22.6v5.2H51.8z"/><path fill="#AE71B0" d="M49.2 64h20.5v8.4H49.2z"/><path fill="#5F2E76" d="M46.8 64h4.8v8.6h-4.8z"/><path fill="#3D2665" d="M43.8 32.9h10.8v1.6H43.8zm0-3.1h10.8v1.6H43.8z"/><path fill="#EEA936" d="M57.1 15.7c0 2.2-1.8 4-4 4h-7.8c-2.2 0-4-1.8-4-4v-8c0-2.2 1.8-4 4-4h7.8c2.2 0 4 1.8 4 4v8z"/><path fill="#ED8923" d="M53.1 3.7h-3.8v16.1h3.8c2.2 0 4-1.8 4-4V7.7c0-2.2-1.8-4-4-4z"/><circle fill="#5F2E76" cx="41.3" cy="11.7" r="3.6"/><circle fill="#fff" cx="41.3" cy="11.7" r="1.9"/><circle fill="#5F2E76" cx="57.1" cy="11.7" r="3.6"/><circle fill="#fff" cx="57.1" cy="11.7" r="1.9"/></svg>