<svg xmlns="http://www.w3.org/2000/svg" viewBox="0 0 77.9 120.5"><path fill="#808184" d="M71.4 71.4h4v13.9h-4zm-68.9 0h4v13.9h-4z"/><circle fill="#808184" cx="68.6" cy="71.4" r="6.8"/><circle fill="#808184" cx="9.3" cy="71.4" r="6.8"/><path fill="#FAC43F" d="M23.3 34.2c.2-.7.3-1.5.3-2.3 0-5.8-4.7-10.5-10.5-10.5S2.5 26.2 2.5 32c0 .8.1 1.6.3 2.3h20.5z"/><path fill="#414142" d="M2.5 32h13.6v39.5H2.5z"/><path fill="#F69321" d="M16.7 94.9h19.2v25.5H16.7z"/><path fill="#FAC43F" d="M26.4 62.4H39v-31L14 32z"/><path fill="#808184" d="M29.6 7.7H39v14.5h-9.4z"/><path fill="#A7B4AC" d="M29.6 0v7.7H39z"/><path fill="#595A5C" d="M39 7.7h9.4v14.5H39z"/><path fill="#808184" d="M48.3 0v7.7H39z"/><path fill="#FAC43F" d="M36 91.3H16.7l9.7-28.9H36z"/><path fill="#2F2B38" d="M38.1 11h11.1v7.9H38.1z"/><path fill="#414142" d="M28.7 11h10.2v7.9H28.7z"/><path fill="#F9BE28" d="M18.7 55.5v-4.7H0v4.7h7.1v3.3H0v4.7h7.1v3.6H0v4.7h18.7v-4.7h-7.6v-3.6h7.6v-4.7h-7.6v-3.3z"/><path fill="#F69321" d="M14 21.5h25V32H14zm40.7 12.7c-.2-.7-.3-1.5-.3-2.3 0-5.8 4.7-10.5 10.5-10.5s10.5 4.7 10.5 10.5c0 .8-.1 1.6-.3 2.3H54.7z"/><path fill="#414142" d="M61.8 32h13.6v39.5H61.8z"/><path fill="#E37725" d="M42 94.9h19.2v24.2H42z"/><path fill="#F69321" d="M51.6 62.4H39v-31l24.9.6zM42 91.3h19.2l-9.6-28.9H42z"/><path fill="#E37725" d="M77.9 55.5v-4.7H59.2v4.7h7.6v3.3h-7.6v4.7h7.6v3.6h-7.6v4.7h18.7v-4.7h-7.1v-3.6h7.1v-4.7h-7.1v-3.3zM39 21.5h25V32H39z"/><path fill="#808184" d="M34.4 62.1h9.1v7.7h-9.1zm17.2.3H26.4L22.9 54H55z"/><path fill="#414142" d="M53.8 56.8L55 54H22.9l1.2 2.8z"/><path fill="#595A5C" d="M15.6 91.2h21v6.9h-21z"/><path fill="#414142" d="M41.4 91.2h21v6.9h-21z"/><circle fill="#2F2B38" cx="39" cy="36" r="8.7"/><circle fill="#414142" cx="39" cy="36" r="6.4"/><path fill="#414142" d="M15.2 102.9h21.5v15.4H15.2zm25.9 0h21.5v14.8H41.1z"/><path fill="#808184" d="M15.2 115.3h21.5v5.2H15.2zm25.9 0h21.5v5.1H41.1z"/><path fill="#BF912D" d="M7.1 63.5h4v3.6h-4z"/><path fill="#AD6728" d="M66.8 63.5h4v3.6h-4zm0-8h4v3.3h-4z"/><path fill="#BF912D" d="M7.1 55.5h4v3.3h-4z"/><path fill="#FFD700" d="M42.5 36h-2.6v-5.1L34.8 36h2.5v5.1z"/><path d="M16.8 111.4h4.3v9.1h-4.3zm7.1 0h4.3v9.1h-4.3zm7.1 0h4.3v9.1H31zm11.6 0h4.3v9.1h-4.3zm7.1 0H54v9.1h-4.3zm7.1 0h4.3v9.1h-4.3z" fill="#AFB0B2"/></svg>