<svg xmlns="http://www.w3.org/2000/svg" viewBox="0 0 1000 1000"><path fill="#D22C49" d="M467.4 700.4V1.8c-213.3 198.3-360.8 438.1-388 698.6h388z"/><path fill="#EF4752" d="M966.4 728.3l-449.6-27.9V1.8z"/><g fill="#FFF"><path d="M933.4 998.2H95.9l-5.7-87.3 41.5-131H1000z"/><path d="M60.8 998.2h792.5l-30.1-87.3-37.2-131H0z"/></g><path fill="#4A3C2C" d="M690.1 875.1c0 25.1-20.8 45.8-45.8 45.8-25.1 0-45.8-20.8-45.8-45.8 0-25.1 20.8-45.8 45.8-45.8 25 0 45.8 20.7 45.8 45.8z"/><path fill="#FFF" d="M668.6 875.1c0 13.6-10.7 24.3-24.3 24.3S620 888.7 620 875.1s10.7-24.3 24.3-24.3c12.8 0 24.3 10.7 24.3 24.3z"/><path fill="#4A3C2C" d="M894.8 875.1c0 18.6-15 33.6-33.6 33.6s-33.6-15-33.6-33.6 15-33.6 33.6-33.6c17.8-.1 33.6 15 33.6 33.6zm-413.8 0c0 25.1-20.8 45.8-45.8 45.8-25.1 0-45.8-20.8-45.8-45.8 0-25.1 20.8-45.8 45.8-45.8 25.1 0 45.8 20.7 45.8 45.8z"/><path fill="#FFF" d="M459.6 875.1c0 13.6-10.7 24.3-24.3 24.3S411 888.7 411 875.1s10.7-24.3 24.3-24.3 24.3 10.7 24.3 24.3z"/><path fill="#4A3C2C" d="M272 875.1c0 25.1-20.8 45.8-45.8 45.8s-45.8-20.8-45.8-45.8c0-25.1 20.8-45.8 45.8-45.8 25.1 0 45.8 20.7 45.8 45.8z"/><path fill="#FFF" d="M250.5 875.1c0 13.6-10.7 24.3-24.3 24.3s-24.3-10.7-24.3-24.3 10.7-24.3 24.3-24.3c12.9 0 24.3 10.7 24.3 24.3z"/></svg>