<svg xmlns="http://www.w3.org/2000/svg" xmlns:xlink="http://www.w3.org/1999/xlink" viewBox="0 0 188.148 188.148"><defs><circle id="a" cx="94.074" cy="94.074" r="94.074"/></defs><use xlink:href="#a" overflow="visible" fill="#d4dce6"/><clipPath id="b"><use xlink:href="#a" overflow="visible"/></clipPath><g clip-path="url(#b)"><path fill="#421800" d="M149.561 97.761v87.412L38.8 183.288V95.876z"/><path d="M135.938 58.277v25.775c0 .452-.011.905-.02 1.357-.011.37-.021.73-.042 1.1-.01.329-.03.658-.061.987-.01.236-.03.473-.051.71-.011.144-.02.277-.041.421a9.85 9.85 0 0 1-.083.781c-.041.494-.103.977-.175 1.47-.01.124-.03.247-.051.37-.031.247-.072.494-.113.74v.031c-.061.359-.123.709-.186 1.069-.092.494-.185.987-.287 1.47-.011.021-.011.041-.02.062-.011.072-.021.144-.042.216-.01.021-.01.041-.02.062a15.13 15.13 0 0 1-.175.781c-.02.113-.041.227-.082.339-.03.185-.082.37-.123.555-.031.103-.052.216-.093.319-.02.093-.051.185-.072.268a48.43 48.43 0 0 1-.72 2.488c-.123.391-.246.771-.38 1.162-.011.041-.031.082-.041.123l-.37 1.049c-.041.103-.082.206-.124.319-.123.329-.246.658-.38.987-.154.401-.319.792-.483 1.183-.144.35-.298.699-.452 1.048-.021.062-.052.113-.072.175-.175.37-.339.74-.514 1.1-.175.38-.36.761-.556 1.141-.37.751-.77 1.501-1.172 2.231l-.555.987a60.617 60.617 0 0 1-5.254 7.649c-.258.34-.524.669-.803.987-.38.463-.771.915-1.161 1.357-.329.37-.669.75-1.019 1.11-.01.021-.021.031-.041.051a55.008 55.008 0 0 1-3.022 3.013c-.206.206-.422.391-.638.586-.35.319-.699.628-1.059.926-.277.247-.565.483-.853.72-.74.606-1.48 1.192-2.23 1.737a21.03 21.03 0 0 1-.946.679c-.514.37-1.038.72-1.563 1.059-.288.195-.586.381-.885.556a37.177 37.177 0 0 1-3.156 1.758c-.257.134-.514.257-.771.381a33.06 33.06 0 0 1-1.821.802 3.246 3.246 0 0 1-.4.154c-.401.164-.812.318-1.214.452-.504.186-1.018.34-1.521.483-.35.103-.709.195-1.059.277a.145.145 0 0 1-.072.021c-.35.082-.699.165-1.049.227a2.488 2.488 0 0 1-.277.051c-.288.052-.576.104-.864.134-.411.063-.822.113-1.233.134-.143.02-.277.031-.422.031-.329.02-.647.03-.966.03h-.041c-.319 0-.638-.01-.957-.03-.123 0-.246-.011-.369-.031a9.272 9.272 0 0 1-.895-.082c-.063 0-.134-.011-.195-.02a23.524 23.524 0 0 1-1.152-.186 12.272 12.272 0 0 1-.997-.205 29.557 29.557 0 0 1-5.397-1.82 39.341 39.341 0 0 1-4.719-2.487 45.887 45.887 0 0 1-3.537-2.386 51.906 51.906 0 0 1-3.63-2.92c-.328-.298-.657-.597-.986-.904-.329-.299-.658-.607-.977-.905a41.638 41.638 0 0 1-2.211-2.272c-.052-.041-.093-.092-.134-.133a43.8 43.8 0 0 1-.894-.987 50.51 50.51 0 0 1-2.385-2.879c-.299-.36-.576-.729-.854-1.101a57.476 57.476 0 0 1-2.951-4.308 77.89 77.89 0 0 1-.729-1.213c-.288-.483-.565-.977-.843-1.47a56.061 56.061 0 0 1-2.797-5.758c-.123-.288-.247-.576-.35-.864-.165-.37-.309-.751-.442-1.12-.205-.546-.4-1.09-.586-1.635-.185-.545-.359-1.1-.534-1.655a40.966 40.966 0 0 1-.463-1.614 30.538 30.538 0 0 1-.452-1.758c-.011-.062-.031-.124-.042-.185a48.871 48.871 0 0 1-1.017-5.88c-.051-.36-.082-.72-.113-1.08-.041-.38-.071-.75-.092-1.131a46.27 46.27 0 0 1-.104-2.087c-.01-.452-.021-.905-.021-1.357V58.277c0-22.341 17.51-40.601 39.562-41.794.042-.011.072-.011.113-.011l.864-.031c.432-.01.853-.021 1.285-.021h.041c.441 0 .884.01 1.326.021.339.01.679.021 1.018.042h.031c2.354.133 4.668.462 6.898.966a41.204 41.204 0 0 1 7.834 2.622 41.475 41.475 0 0 1 9.388 5.809 41.526 41.526 0 0 1 6.446 6.58c5.511 7.022 8.831 15.844 8.903 25.446.012.124.012.247.012.371z" fill="#f0d0b4"/><path d="M148.615 200.745v.011H39.54v-.011c0-6.097.997-11.978 2.858-17.457.021-.052.031-.104.052-.154.339-.997.709-1.984 1.11-2.961v-.011c.391-.977.822-1.933 1.274-2.879a53.983 53.983 0 0 1 6.642-10.59 56.134 56.134 0 0 1 2.016-2.364 35.61 35.61 0 0 1 1.059-1.151c.36-.37.72-.74 1.09-1.11a54.164 54.164 0 0 1 9.069-7.269c.144-.092.288-.185.432-.267.401-.258.802-.504 1.214-.74.555-.329 1.12-.648 1.686-.957.021-.02.041-.02.041-.02.442-.236.874-.493 1.306-.761a32.339 32.339 0 0 0 3.691-2.57 34.564 34.564 0 0 0 11.001-15.34 34.492 34.492 0 0 0 2.015-11.648l7.947.041h.133l8.04.041a34.636 34.636 0 0 0 1.964 11.516 34.433 34.433 0 0 0 10.96 15.401 28.13 28.13 0 0 0 2.282 1.686 21.291 21.291 0 0 0 1.368.885c.421.257.854.514 1.285.75a.52.52 0 0 1 .185.093c.905.504 1.8 1.028 2.674 1.573.071.041.133.082.205.134.35.216.71.441 1.049.689a37.221 37.221 0 0 1 2.498 1.759c0 .01.011.01.011.01h.01a56.907 56.907 0 0 1 3.033 2.437 49.474 49.474 0 0 1 2.848 2.643 54.315 54.315 0 0 1 13.171 21.139 54.485 54.485 0 0 1 2.856 17.452z" fill="#f0d0b4"/><path d="M148.615 200.745H39.54c0-6.097.997-11.978 2.858-17.457.021-.052.031-.104.052-.154.339-.997.709-1.984 1.11-2.961v-.011c.391-.977.822-1.933 1.274-2.879a53.983 53.983 0 0 1 6.642-10.59 56.134 56.134 0 0 1 2.016-2.364 35.61 35.61 0 0 1 1.059-1.151c.36-.37.72-.74 1.09-1.11a54.164 54.164 0 0 1 9.069-7.269c.144-.092.288-.185.432-.267.401-.258.802-.504 1.214-.74.555-.34 1.12-.658 1.686-.967.021-.021.041-.011.041-.011v-.01c.442-.247.874-.493 1.306-.751a31.773 31.773 0 0 0 3.671-2.591l.021.021c5.325 5.449 12.738 8.832 20.964 8.853h.133c8.205-.011 15.628-3.403 20.964-8.842l.011-.011c.729.606 1.49 1.172 2.271 1.696.083.063.154.113.237.165.37.247.75.483 1.131.72.421.257.854.504 1.285.74.071.021.123.062.185.093.905.503 1.8 1.027 2.674 1.583.071.041.133.082.205.134.35.216.71.441 1.049.689a37.221 37.221 0 0 1 2.498 1.759h.021a52.957 52.957 0 0 1 3.033 2.446 49.474 49.474 0 0 1 2.848 2.643 54.315 54.315 0 0 1 13.171 21.139 54.571 54.571 0 0 1 2.854 17.455z" fill="#b34fc5"/><path d="M149.798 170.583a.848.848 0 0 1-.237.072c-5.407 1.408-26.731-24.288-26.947-51.225-.01-2.17.103-4.35.381-6.539.72-5.809 3.517-11.392 5.84-17.016 1.83-4.452 3.382-8.914 3.382-13.52 0-24.675-7.155-16.635-27.111-29.95a151.143 151.143 0 0 1-10.93-7.979c-7.412-5.881-9.294-7.988-19.462-7.988-12.935 0-18.075 22.464-19.545 32.067-1.583 10.333-1.604 27.081 4.843 43.027 4.995 12.356 4.996 24.47-4.843 37.928-3.691 5.049-9.346 22.105-16.368 27.605-2.189 1.717-4.503 2.314-6.939 1.069-19.186-9.818-7.64-41.331-1.882-61.061 6.2-21.231 8.071-42.75 12.574-64.187C47.632 28.749 68.297 14.036 76.646 20c2.786-4.997 10.076-6.868 17.529-6.868 5.46 0 11.022 1.018 14.97 2.55 30.484 11.834 30.999 40.087 32.623 51.838 1.337 9.706 6.117 18.774 7.793 28.356v.031c.36 2.015.576 4.071.587 6.148.071 11.217-1.183 18.805 7.341 28.15 6.466 7.084 1.521 36.338-7.691 40.378z" fill="#421800"/><path d="M94.175 158.335l-.03.052-.011.02c-2.899 4.503-7.7 6.847-12.543 6.847a14.776 14.776 0 0 1-10.867-4.739l-5.583-5.983a45.085 45.085 0 0 1 2.899-1.707c.021-.021.041-.011.041-.011v-.01c.442-.247.874-.493 1.306-.751a31.773 31.773 0 0 0 3.671-2.591l.021.021c5.325 5.449 12.738 8.832 20.964 8.853h.132zm28.963-3.722l-5.5 5.901a14.781 14.781 0 0 1-10.878 4.739c-4.832 0-9.644-2.344-12.533-6.847l-.01-.02-.042-.052c8.205-.011 15.628-3.403 20.964-8.842l.011-.011c.729.606 1.49 1.172 2.271 1.696.083.063.154.113.237.165.37.247.75.483 1.131.72.421.257.854.504 1.285.74.071.021.123.062.185.093.905.503 1.8 1.027 2.674 1.583.071.042.132.083.205.135z" fill="#e7ecf2"/></g></svg>