<svg xmlns="http://www.w3.org/2000/svg" viewBox="0 0 197.21155 197.21638" height="197.216" width="197.212"><path d="M85.64 196.35c-8.982-1.109-26.371-6.73-34-10.99C5.32 159.494-12.92 103.301 9.65 56.01c25.61-53.654 93.499-72.584 143.157-39.916 9.385 6.174 22.1 18.888 28.273 28.273 25 38.002 20.574 88.354-10.706 121.793-11.287 12.065-24.357 20.326-40.734 25.747-15.428 5.106-28.189 6.395-44 4.443zm39-11.293c15.41-5 25.172-10.763 36.36-21.462 11.71-11.197 18.93-22.879 24.142-39.061 2.173-6.747 2.841-11.079 3.24-21 .694-17.258.536-17.636-4.139-9.925-14.185 23.394-35.338 44.351-55.104 54.593-13.437 6.963-20.998 8.837-35.5 8.8-13.867-.037-20.467-1.697-29.96-7.539l-4.951-3.046-9.553 3.578c-5.254 1.968-11.8 4.096-14.545 4.73-2.745.634-4.99 1.451-4.99 1.816 0 1.158 13.313 13.49 18 16.671 16.649 11.306 31.447 15.439 53.5 14.942 13.09-.296 16.08-.69 23.5-3.097zm-15.065-40.11c24.549-5.937 53.581-31.17 71.033-61.739l5.104-8.939-1.676-5.118c-4.23-12.92-12.29-25.403-23.035-35.679-11.227-10.735-22.974-17.569-37.898-22.046-10.025-3.008-31.185-3.73-42.553-1.454-9.03 1.809-20.574 6.364-29.73 11.731-7.325 4.295-24.717 21.686-29.011 29.012C11.653 68.04 8.143 82.1 8.896 102.445c.555 15.01 2.156 21.688 8.473 35.339 3.225 6.97 3.867 7.75 6.39 7.75 3.179 0 17.451-3.221 23.192-5.234l3.81-1.337-3.161-3.965c-9.742-12.213-14.7-32.39-12.082-49.167 4.495-28.797 26.37-55.777 51.442-63.448 10.256-3.138 22.14-2.373 31.014 1.995 20.822 10.25 25.476 36.131 11.116 61.81-9.522 17.027-32.857 39.632-52.2 50.569-2.888 1.632-5.25 3.314-5.25 3.736 0 .8 5.96 3.232 12 4.896 5.517 1.52 18.752 1.294 25.935-.443zm-41.157-13.31c24.855-12.587 49.569-37.103 57.354-56.896 1.8-4.577 2.258-7.787 2.306-16.207.054-9.18-.244-11.116-2.367-15.395-2.932-5.91-7.658-10.81-13.348-13.841-3.478-1.853-5.817-2.251-13.245-2.257-8.156-.007-9.651.303-15.592 3.228-11.484 5.653-20.434 15.358-27.912 30.265-10.845 21.62-12.45 42.106-4.581 58.5 2.863 5.964 9.76 15.5 11.213 15.5.247 0 3.025-1.304 6.172-2.898z" fill="#070707"/></svg>