<svg xmlns="http://www.w3.org/2000/svg" xmlns:xlink="http://www.w3.org/1999/xlink" viewBox="0 0 188.148 188.148"><defs><circle id="a" cx="94.074" cy="94.074" r="94.074"/></defs><use xlink:href="#a" overflow="visible" fill="#eb6d4a"/><clipPath id="b"><use xlink:href="#a" overflow="visible"/></clipPath><path d="M135.938 52.784V84.05c0 .453-.011.905-.021 1.357-.02.936-.072 1.871-.154 2.796-.02.319-.052.637-.093.956a49.422 49.422 0 0 1-.555 3.928c-.083.432-.165.853-.258 1.275-.01.092-.03.175-.051.257-.083.432-.186.854-.288 1.275-.041.226-.103.452-.154.679-.052.195-.103.391-.164.586a49.465 49.465 0 0 1-.721 2.488c-.123.391-.246.771-.38 1.162-.011.041-.031.082-.041.123l-.37 1.048c-.041.103-.082.205-.124.319-.123.329-.246.658-.38.987-.154.401-.318.792-.483 1.183-.144.35-.298.699-.452 1.049-.02.062-.052.113-.072.174-.175.37-.339.741-.514 1.1-.175.38-.36.761-.556 1.142a57.62 57.62 0 0 1-1.172 2.231l-.556.987a60.434 60.434 0 0 1-5.253 7.649c-.258.339-.524.668-.802.987-.381.462-.772.915-1.162 1.357-.35.391-.699.781-1.059 1.162a55.735 55.735 0 0 1-3.023 3.013c-.205.206-.422.391-.638.586a27.8 27.8 0 0 1-1.059.925c-.277.247-.565.483-.854.72-.74.606-1.48 1.192-2.23 1.737-.309.237-.628.463-.946.679-.514.37-1.038.72-1.563 1.059-.288.195-.586.38-.885.555a37.177 37.177 0 0 1-3.156 1.758 31.03 31.03 0 0 1-2.591 1.182 3.199 3.199 0 0 1-.401.154c-.4.165-.812.319-1.213.452a21.9 21.9 0 0 1-1.521.483c-.35.103-.709.195-1.059.277a.142.142 0 0 1-.072.021c-.35.082-.699.165-1.049.226a2.446 2.446 0 0 1-.277.051c-.288.051-.576.103-.864.134-.411.062-.822.113-1.233.134-.143.02-.277.031-.422.031-.328.021-.657.031-.977.031h-.03c-.319 0-.638-.01-.956-.031-.124 0-.247-.01-.371-.031a9.291 9.291 0 0 1-.894-.083c-.062 0-.134-.01-.195-.02a23.7 23.7 0 0 1-1.152-.185 12.372 12.372 0 0 1-.997-.206 29.481 29.481 0 0 1-5.397-1.82 39.352 39.352 0 0 1-4.719-2.488 45.864 45.864 0 0 1-2.365-1.542c-.391-.278-.781-.555-1.172-.843a51.906 51.906 0 0 1-3.63-2.92c-.328-.298-.657-.596-.986-.905-.329-.298-.658-.606-.977-.904a51.309 51.309 0 0 1-2.345-2.406 42.153 42.153 0 0 1-.895-.987 49.821 49.821 0 0 1-2.385-2.879c-.299-.36-.576-.73-.854-1.1a57.985 57.985 0 0 1-2.951-4.308 82.87 82.87 0 0 1-.729-1.213c-.288-.483-.565-.976-.843-1.47a56.061 56.061 0 0 1-2.797-5.758c-.123-.288-.247-.576-.35-.863-.165-.37-.309-.751-.442-1.121-.205-.545-.4-1.09-.586-1.635-.185-.545-.359-1.1-.534-1.655a40.966 40.966 0 0 1-.463-1.614 31.382 31.382 0 0 1-.452-1.758c-.011-.062-.031-.123-.041-.185a48.874 48.874 0 0 1-1.018-5.881c-.051-.36-.082-.72-.113-1.08-.041-.38-.071-.751-.092-1.131a46.27 46.27 0 0 1-.104-2.087c-.01-.453-.021-.905-.021-1.357V52.784c0-23.102 18.723-41.834 41.825-41.855h.041c3.188 0 6.292.359 9.273 1.028a41.237 41.237 0 0 1 7.835 2.622 41.526 41.526 0 0 1 9.387 5.809 41.526 41.526 0 0 1 6.446 6.58 41.644 41.644 0 0 1 8.917 25.816z" clip-path="url(#b)" fill="#ecc19c"/><path d="M148.613 200.741v.01H39.538v-.01a54.262 54.262 0 0 1 4.02-20.573v-.01c.4-.977.822-1.933 1.274-2.879a53.983 53.983 0 0 1 6.642-10.59 56.056 56.056 0 0 1 2.016-2.365 35.61 35.61 0 0 1 1.059-1.151c.36-.37.72-.74 1.09-1.11a54.274 54.274 0 0 1 5.892-5.079 55.912 55.912 0 0 1 3.177-2.19c1.09-.689 2.2-1.347 3.331-1.964.021-.02.041-.02.041-.02.442-.236.874-.493 1.306-.761a31.16 31.16 0 0 0 2.499-1.665c.411-.288.802-.586 1.192-.905a36.407 36.407 0 0 0 2.673-2.365c.277-.277.556-.555.833-.843a32.167 32.167 0 0 0 1.645-1.861c.258-.308.515-.627.751-.946.247-.318.483-.647.72-.977 1.83-2.55 3.3-5.356 4.38-8.349a34.405 34.405 0 0 0 2.015-11.649l7.948.041 8.173.041c0 4.04.689 7.916 1.964 11.515a34.31 34.31 0 0 0 4.329 8.359 34.484 34.484 0 0 0 6.631 7.042c.381.309.761.607 1.142.884.37.278.75.545 1.141.802a20.672 20.672 0 0 0 1.368.885c.421.257.854.514 1.285.751.071.02.134.051.185.093.905.504 1.8 1.028 2.674 1.573.421.257.843.524 1.254.823a41.236 41.236 0 0 1 2.498 1.758c0 .011.011.011.011.011h.01a55.052 55.052 0 0 1 5.881 5.079c9.908 9.869 16.025 23.502 16.025 38.595z" clip-path="url(#b)" fill="#ecc19c"/><path d="M148.614 200.743H39.539a54.285 54.285 0 0 1 4.02-20.573c-.011-.011 0-.011 0-.011.391-.977.822-1.933 1.274-2.878a53.983 53.983 0 0 1 6.642-10.59 56.165 56.165 0 0 1 2.016-2.365 35.61 35.61 0 0 1 1.059-1.151c.36-.37.72-.74 1.09-1.11a54.164 54.164 0 0 1 9.069-7.269c1.09-.699 2.2-1.357 3.331-1.974.021-.02.041-.01.041-.01v-.01c.442-.247.874-.494 1.306-.751a31.773 31.773 0 0 0 3.671-2.591l.021.02c5.325 5.449 12.738 8.831 20.964 8.852h.082c8.225 0 15.669-3.393 21.015-8.842l.011-.01c.729.606 1.49 1.172 2.272 1.696.082.061.154.113.236.164.37.247.75.483 1.131.72.422.257.854.504 1.285.74.072.02.123.061.185.092.905.504 1.8 1.028 2.674 1.583.421.257.843.524 1.254.823a37.206 37.206 0 0 1 2.498 1.758h.021a54.453 54.453 0 0 1 5.881 5.089c9.909 9.872 16.026 23.505 16.026 38.598z" clip-path="url(#b)" fill="#c7d4e2"/><path d="M135.938 84.05c0 .453-.011.905-.021 1.357-.02.936-.072 1.871-.154 2.796-.02.319-.052.637-.093.956a49.422 49.422 0 0 1-.555 3.928c-.083.432-.165.853-.258 1.275-.01.092-.03.175-.051.257-.083.432-.186.854-.288 1.275a8.077 8.077 0 0 1-.186.72 4.61 4.61 0 0 1-.133.545 49.465 49.465 0 0 1-.721 2.488c-.123.391-.246.771-.38 1.162-.011.041-.031.082-.041.123l-.37 1.048c-.041.103-.082.205-.124.319-.123.329-.246.658-.38.987-.154.401-.318.792-.483 1.183-.144.35-.298.699-.452 1.049-.02.062-.052.113-.072.174-.175.37-.339.741-.514 1.1-.175.38-.36.761-.556 1.142a57.62 57.62 0 0 1-1.172 2.231l-.556.987a60.434 60.434 0 0 1-5.253 7.649c-.258.339-.524.668-.802.987-.381.462-.772.915-1.162 1.357-.35.391-.699.781-1.059 1.162a55.735 55.735 0 0 1-3.023 3.013c-.205.206-.422.391-.638.586a27.8 27.8 0 0 1-1.059.925c-.277.247-.565.483-.854.72-.74.606-1.48 1.192-2.23 1.737-.309.237-.628.463-.946.679-.514.37-1.038.72-1.563 1.059-.288.195-.586.38-.885.555a37.177 37.177 0 0 1-3.156 1.758 31.03 31.03 0 0 1-2.591 1.182 3.199 3.199 0 0 1-.401.154c-.4.165-.812.319-1.213.452a21.9 21.9 0 0 1-1.521.483c-.35.103-.709.195-1.059.277a.142.142 0 0 1-.072.021c-.35.082-.699.165-1.049.226a2.446 2.446 0 0 1-.277.051c-.288.051-.576.103-.864.134-.411.062-.822.113-1.233.134-.143.02-.277.031-.422.031-.328.021-.657.031-.977.031h-.03c-.319 0-.638-.01-.956-.031-.124 0-.247-.01-.371-.031a9.291 9.291 0 0 1-.894-.083c-.062 0-.134-.01-.195-.02a23.7 23.7 0 0 1-1.152-.185 12.372 12.372 0 0 1-.997-.206 29.481 29.481 0 0 1-5.397-1.82 39.352 39.352 0 0 1-4.719-2.488 38.689 38.689 0 0 1-2.365-1.542c-.391-.278-.781-.555-1.172-.843a51.906 51.906 0 0 1-3.63-2.92c-.328-.298-.657-.596-.986-.905-.329-.298-.658-.606-.977-.904a51.309 51.309 0 0 1-2.345-2.406 42.153 42.153 0 0 1-.895-.987 49.821 49.821 0 0 1-2.385-2.879c-.299-.36-.576-.73-.854-1.1a57.985 57.985 0 0 1-2.951-4.308 82.87 82.87 0 0 1-.729-1.213c-.288-.483-.565-.976-.843-1.47a56.061 56.061 0 0 1-2.797-5.758c-.123-.288-.247-.576-.35-.863-.165-.37-.309-.751-.442-1.121-.205-.545-.4-1.09-.586-1.635-.185-.545-.359-1.1-.534-1.655a40.966 40.966 0 0 1-.463-1.614 31.382 31.382 0 0 1-.452-1.758c-.011-.062-.031-.123-.041-.185a48.874 48.874 0 0 1-1.018-5.881c-.051-.36-.082-.72-.113-1.08-.041-.38-.071-.751-.092-1.131a46.27 46.27 0 0 1-.104-2.087c-.01-.453-.021-.905-.021-1.357l6.684 13.14 11.484 5.007 13.581 1.224 10.076.915h.062l9.428.854 21.005 1.892 11.405-23.031zm-8.915-57.082c-2.046 4.637-4.709 8.945-7.855 12.852-.185.227-.37.453-.565.679a57.633 57.633 0 0 1-24.562 17.324 56.011 56.011 0 0 1-7.855 2.262 60.05 60.05 0 0 1-5.49.895 59.52 59.52 0 0 1-6.528.36c-2.529 0-5.007-.165-7.443-.483a54.308 54.308 0 0 1-7.002-1.336 53.169 53.169 0 0 1-3.846-1.131 55.745 55.745 0 0 1-3.66-1.357v-4.246c0-23.102 18.723-41.834 41.825-41.855h.041c3.188 0 6.292.359 9.273 1.028a41.237 41.237 0 0 1 7.835 2.622 41.526 41.526 0 0 1 9.387 5.809 41.375 41.375 0 0 1 6.445 6.577z" clip-path="url(#b)" fill="#543e36"/><path d="M135.938 52.784v8.235a64.177 64.177 0 0 1-17.314-20.48c-.01-.01-.01-.031-.021-.041a63.771 63.771 0 0 1-7.412-25.92 41.526 41.526 0 0 1 9.387 5.809 41.526 41.526 0 0 1 6.446 6.58 41.665 41.665 0 0 1 8.914 25.817zM57.12 56.013a44.008 44.008 0 0 0-1.244 2.375c-.153.318-.308.658-.462.987-2.025 4.503-3.044 8.924-3.188 12.914 0 .113-.011.236-.011.35V56.517c0-.576.021-1.142.021-1.697a134.6 134.6 0 0 0 4.884 1.193z" clip-path="url(#b)" fill="#543e36"/><path d="M131.054 56.013a45.482 45.482 0 0 1 1.71 3.361c2.088 4.643 3.11 9.178 3.198 13.268v-16.13c0-.567-.021-1.134-.021-1.688-1.623.419-3.244.824-4.887 1.189z" clip-path="url(#b)" fill="#543e36"/><path d="M130.972 60.167a.355.355 0 0 0-.309-.35c-1.48-.226-8.143-1.142-15.309-1.142-8.133 0-18.63 2.55-20.46 2.55H93.27c-.854 0-3.588-.555-7.084-1.141-4.02-.679-9.037-1.409-13.376-1.409-5.243 0-10.22.494-13.088.843-1.049.124-1.82.236-2.221.298a.355.355 0 0 0-.309.35l-.082 4.369c0 .154.093.288.236.35l.493.175c.73.278.669 13.448 4.596 16.738 2.334 1.943 4.411 3.053 13.16 3.053 5.069 0 8.256-1.367 11.279-5.449 2.18-2.93 4.112-9.86 4.112-9.86.586-2.858 2.714-3.084 3.054-3.105h.041c.071 0 2.468.041 3.095 3.105 0 0 1.933 6.93 4.112 9.86 3.022 4.082 6.21 5.449 11.278 5.449 8.75 0 10.826-1.11 13.16-3.053 3.928-3.29 3.866-16.46 4.596-16.738l.494-.175a.38.38 0 0 0 .236-.35l-.08-4.368zM86.875 75.753c-1.285 3.043-4.606 6.971-9.284 7.207-14.034.709-14.682-3.208-15.587-6.313-.915-3.105-1.151-5.83-.792-8.935.37-3.105 1.152-4.925 2.561-5.84.606-.401 1.265-.761 2.951-1.018 1.511-.226 3.845-.36 7.731-.36 2.251 0 4.359.175 6.24.483 4.997.802 8.369 2.499 8.369 4.174 0 1.143-.288 6.098-2.189 10.602zm39.284.894c-.904 3.105-1.552 7.022-15.586 6.313-4.678-.236-7.999-4.164-9.284-7.207-1.902-4.503-2.189-9.459-2.189-10.6 0-2.303 6.395-4.658 14.609-4.658 8.215 0 9.53.617 10.683 1.378 1.408.915 2.189 2.735 2.56 5.84.36 3.105.123 5.83-.793 8.934z" clip-path="url(#b)" fill="#1a1a1a"/><g clip-path="url(#b)" fill="#543e36"><path d="M94.123 90.65l-.011 10.138-.01 3.547v2.786l-.011 9.253v.01l-.01-.01h-.011l-.03-.021-40.436-20.582c-.011-.062-.031-.123-.041-.185a48.874 48.874 0 0 1-1.018-5.881c-.051-.36-.082-.72-.113-1.08-.041-.38-.071-.751-.092-1.131a46.27 46.27 0 0 1-.104-2.087c-.01-.453-.021-.905-.021-1.357V71.764c0 .175.011.35.011.524.082 2.971.555 6.241 1.47 9.582.71 2.57 1.594 4.945 2.622 7.063v.01c2.694 5.604 6.303 9.407 9.623 10.024.206.031.422.051.628.072a36.15 36.15 0 0 0 4.02.226c5.243 0 9.901-4.215 12.831-5.922l.062-.031c.154-.093.309-.185.442-.278.041-.031.082-.051.123-.072 2.468-1.409 6.025-2.303 9.994-2.313h.082z"/><path d="M135.947 71.764l-.01 12.286c0 3.085-.288 6.107-.822 9.038a57.558 57.558 0 0 1-.751 3.485l-9.49 13.705-30.782 6.097h-.01l-.011.01v-.01l-.03-25.727h.082c3.969.01 7.536.905 10.004 2.313a.758.758 0 0 1 .113.072c.144.093.298.185.452.278.01.01.03.021.051.031 2.941 1.707 7.588 5.925 12.832 5.925 1.388 0 2.734-.082 4.019-.226.216-.021.422-.041.638-.072 3.311-.617 6.93-4.421 9.613-10.024v-.01c1.027-2.118 1.912-4.493 2.621-7.063.926-3.393 1.409-6.703 1.471-9.716.01-.135.01-.259.01-.392z"/></g><ellipse cx="94.074" cy="103.955" rx="10.255" ry="3.17" clip-path="url(#b)" fill="#ecc19c"/><g clip-path="url(#b)" fill="#435363"><path d="M64.131 155.174v56.558h-4.369v-53.37a53.699 53.699 0 0 1 1.769-1.378 49.372 49.372 0 0 1 2.6-1.81zm59.89.011v56.547h4.369v-53.36z"/></g><g clip-path="url(#b)"><g fill="#141720"><path d="M82.113 151.713l11.961 14.336 11.962-14.336z"/><path d="M94.074 225.437h-7.073l5.11-65.8c.215.837 3.712.837 3.927 0l5.11 65.8h-7.074z"/></g><g fill="#e7ecf2"><path d="M94.07 151.638l-.03.051-.011.021-4.966 8.338-4.637 7.772-12.554-17.447a20.29 20.29 0 0 0 1.183-.915l.021.021a34.2 34.2 0 0 0 6.621-6.991l14.343 9.13.03.02z"/><path d="M116.278 150.373l-12.554 17.447-4.637-7.772-4.977-8.338-.041-.072 14.436-9.191a34.484 34.484 0 0 0 6.631 7.042c.382.308.761.607 1.142.884z"/></g></g></svg>