<svg xmlns="http://www.w3.org/2000/svg" width="1200" height="560" viewBox="0 0 317.5 148.16667"><path d="M0 74.083V0h317.5v148.167H0z" fill="transparent"/><path d="M46.04 147.411c-.635-.117-.954-.335-1.023-.7-.056-.29-.438-.913-.85-1.383s-.818-1.244-.903-1.72c-.126-.708-.43-37.42-.343-41.479.03-1.383.004-3.127-.069-4.63-.028-.582.022-3.89.11-7.349.18-7 .344-7.714 2.08-9.003 1.44-1.07 2.417-1.243 6.988-1.243h4.326l.007-36.975c.004-24.322.1-37.383.278-38.166.358-1.572 1.337-2.948 2.6-3.658l1.024-.576h167.173l1.204.764a4.835 4.835 0 0 1 1.838 2.05l.634 1.287.071 22.428.072 22.428 14.877-.143c21.74-.208 22.64-.198 23.894.27 1.3.485 2.303 1.48 2.93 2.907.437.997.461 3.602.411 45.111-.03 24.23-.127 44.53-.217 45.112-.217 1.395-.78 2.508-1.646 3.25-.68.583-.687.614-.188.903.514.297.514.301 0 .502-.723.283-72.363.255-73.013-.028-.514-.224-.512-.236.066-.41.687-.205.777-.592.192-.817-.223-.085-.69-.647-1.04-1.248-.635-1.092-.637-1.113-.853-12.603l-.217-11.51-16.389-.068c-9.302-.039-16.49.033-16.624.167-.558.558.71 10.612 1.544 12.232.405.789 3.82 4.049 5.848 5.583.751.568 1.431 1.202 1.51 1.408.249.648-.395 2.002-1.074 2.26-.969.369-53.752.325-54.814-.045-1.58-.55-1.388-2.178.401-3.404.52-.357 2.116-1.785 3.545-3.173 2.273-2.207 2.65-2.704 3.01-3.953.462-1.608.825-4.423 1.088-8.427l.178-2.712h-49.27v11.121c0 12.03-.004 12.074-1.465 13.81-.374.444-.621.96-.55 1.146.071.185-.071.435-.317.555-.528.257-25.69.377-27.033.13zm218.123-49.02c.106-21.266.094-38.739-.025-38.828-.119-.09-13.224-.131-29.122-.091l-28.906.073v77.509h57.861zm-57.405 37.795c-.072-.187-.099-2.42-.059-4.962l.073-4.62h56.62v9.789l-28.251.067c-22.87.055-28.278.002-28.384-.274zm-.26-11.1c-.071-.185-.098-5.633-.06-12.109l.07-11.774h18.52v24.077l-9.201.07c-7.219.054-9.229-.002-9.33-.265zm19.579 0c-.07-.185-.097-5.633-.06-12.109l.07-11.774h17.991v24.077l-8.937.07c-7.007.055-8.964-.002-9.064-.265zm19.05 0c-.07-.185-.097-5.633-.06-12.109l.07-11.774h18.52v24.077l-9.201.07c-7.219.054-9.229-.002-9.33-.265zm-38.63-25.138c-.07-.183-.096-6.821-.058-14.752l.068-14.42h57.15v29.369l-28.516.067c-22.674.054-28.543 0-28.644-.264zm-.003-30.434c-.073-.19-.1-2.423-.06-4.965l.073-4.62h14.023v9.789l-6.952.07c-5.516.056-6.98 0-7.084-.274zm14.815-.003c-.072-.188-.098-2.42-.058-4.962l.073-4.621h42.333v9.79l-21.108.067c-17.05.055-21.134.002-21.24-.274zM47.096 132.953c0-.041-.179-.144-.397-.228-.24-.092-.397 0-.397.228 0 .23.158.32.397.228.218-.084.397-.186.397-.228zm0-8.731c0-.042-.179-.144-.397-.228-.24-.092-.397-.001-.397.228 0 .23.158.32.397.228.218-.084.397-.186.397-.228zm-.408-8.58c.083-.136.03-.322-.117-.413-.148-.092-.269.02-.269.246 0 .465.159.533.386.166zm149.897-18.14v-.924l-12.501-.069-12.502-.068V69.982l12.568-.132 12.568-.132V67.6l-65.22-.132-65.22-.132V27.12H221.59l.132 11.112.132 11.113 1.125.081 1.124.082V7.144H63.765V79.97l.826-.165c.455-.09.988-.165 1.185-.165.285 0 .373-.983.43-4.83l.072-4.828h50.006v26.459l-20.439.067-20.439.068v1.849h121.18zm-77.665-1.258c-.07-.183-.097-6.167-.059-13.297l.07-12.965h50.004v26.459l-24.944.067c-19.816.054-24.971 0-25.072-.264zm-52.654-71.97c-.07-.185-.097-3.61-.058-7.609l.07-7.272h38.1v15.081l-18.991.068c-15.165.054-19.018 0-19.12-.268zm40.746-.001c-.071-.185-.097-3.608-.059-7.608l.071-7.272h114.565v15.081l-57.225.067c-45.98.053-57.25 0-57.352-.269zM56.007 97.194c-.278-.278-9.705-.239-9.705.04 0 .17 1.766.237 4.927.187 2.71-.042 4.86-.145 4.778-.227zm16.224-.084c0-.14-.178-.187-.397-.104-.218.084-.397.2-.397.257 0 .057.18.104.397.104.219 0 .397-.116.397-.257z" fill="#fcc1fe"/><path d="M46.04 147.411c-.635-.117-.954-.335-1.023-.7-.056-.29-.438-.913-.85-1.383s-.818-1.244-.903-1.72c-.126-.708-.43-37.42-.343-41.479.03-1.383.004-3.127-.069-4.63-.028-.582.022-3.89.11-7.349.18-7 .344-7.714 2.08-9.003 1.44-1.07 2.417-1.243 6.988-1.243h4.326l.007-36.975c.004-24.322.1-37.383.278-38.166.358-1.572 1.337-2.948 2.6-3.658l1.024-.576h167.173l1.204.764a4.835 4.835 0 0 1 1.838 2.05l.634 1.287.071 22.428.072 22.428 14.877-.143c21.74-.208 22.64-.198 23.894.27 1.3.485 2.303 1.48 2.93 2.907.437.997.461 3.602.411 45.111-.03 24.23-.127 44.53-.217 45.112-.217 1.395-.78 2.508-1.646 3.25-.68.583-.687.614-.188.903.514.297.514.301 0 .502-.723.283-72.363.255-73.013-.028-.514-.224-.512-.236.066-.41.687-.205.777-.592.192-.817-.223-.085-.69-.647-1.04-1.248-.635-1.092-.637-1.113-.853-12.603l-.217-11.51-16.389-.068c-9.302-.039-16.49.033-16.624.167-.558.558.71 10.612 1.544 12.232.405.789 3.82 4.049 5.848 5.583.751.568 1.431 1.202 1.51 1.408.249.648-.395 2.002-1.074 2.26-.969.369-53.752.325-54.814-.045-1.58-.55-1.388-2.178.401-3.404.52-.357 2.116-1.785 3.545-3.173 2.273-2.207 2.65-2.704 3.01-3.953.462-1.608.825-4.423 1.088-8.427l.178-2.712h-49.27v11.121c0 12.03-.004 12.074-1.465 13.81-.374.444-.621.96-.55 1.146.071.185-.071.435-.317.555-.528.257-25.69.377-27.033.13zm218.123-49.02c.106-21.266.094-38.739-.025-38.828-.119-.09-13.224-.131-29.122-.091l-28.906.073v77.509h57.861zm-57.666 26.694c-.07-.184-.097-5.632-.059-12.108l.07-11.774h18.52v24.077l-9.201.07c-7.219.054-9.229-.002-9.33-.265zm19.58 0c-.07-.184-.097-5.632-.06-12.108l.07-11.774h17.991v24.077l-8.937.07c-7.007.055-8.964-.002-9.064-.265zm19.05 0c-.07-.184-.097-5.632-.06-12.108l.07-11.774h18.52v24.077l-9.201.07c-7.219.054-9.229-.002-9.33-.265zm-38.63-25.137c-.07-.183-.096-6.821-.058-14.752l.068-14.42h57.15v29.369l-28.516.067c-22.674.054-28.543 0-28.644-.264zm-.003-30.434c-.073-.19-.1-2.423-.06-4.965l.073-4.62h14.023v9.789l-6.952.07c-5.516.056-6.98 0-7.084-.274zm14.815-.003c-.072-.188-.098-2.42-.058-4.962l.073-4.621h42.333v9.79l-21.108.067c-17.05.055-21.134.002-21.24-.274zM47.096 132.953c0-.041-.179-.144-.397-.228-.24-.092-.397 0-.397.228 0 .23.158.32.397.228.218-.084.397-.186.397-.228zm0-8.731c0-.042-.179-.144-.397-.228-.24-.092-.397-.001-.397.228 0 .23.158.32.397.228.218-.084.397-.186.397-.228zm-.408-8.58c.083-.136.03-.322-.117-.413-.148-.092-.269.02-.269.246 0 .465.159.533.386.166zm149.897-18.14v-.924l-12.501-.069-12.502-.068V69.982l12.568-.132 12.568-.132V67.6l-65.22-.132-65.22-.132V27.12H221.59l.132 11.112.132 11.113 1.125.081 1.124.082V7.144H63.765V79.97l.826-.165c.455-.09.988-.165 1.185-.165.285 0 .373-.983.43-4.83l.072-4.828h50.006v26.459l-20.439.067-20.439.068v1.849h121.18zm-77.665-1.258c-.07-.183-.097-6.167-.059-13.297l.07-12.965h50.004v26.459l-24.944.067c-19.816.054-24.971 0-25.072-.264zm-52.654-71.97c-.07-.185-.097-3.61-.058-7.609l.07-7.272h38.1v15.081l-18.991.068c-15.165.054-19.018 0-19.12-.268zm40.746-.001c-.071-.185-.097-3.608-.059-7.608l.071-7.272h114.565v15.081l-57.225.067c-45.98.053-57.25 0-57.352-.269zM56.007 97.194c-.278-.278-9.705-.239-9.705.04 0 .17 1.766.237 4.927.187 2.71-.042 4.86-.145 4.778-.227zm16.224-.084c0-.14-.178-.187-.397-.104-.218.084-.397.2-.397.257 0 .057.18.104.397.104.219 0 .397-.116.397-.257z" fill="#fdeabd"/><path d="M46.04 147.411c-.635-.117-.954-.335-1.023-.7-.056-.29-.438-.913-.85-1.383s-.818-1.244-.903-1.72c-.126-.708-.43-37.42-.343-41.479.03-1.383.004-3.127-.069-4.63-.028-.582.022-3.89.11-7.349.18-7 .344-7.714 2.08-9.003 1.44-1.07 2.417-1.243 6.988-1.243h4.326l.007-36.975c.004-24.322.1-37.383.278-38.166.358-1.572 1.337-2.948 2.6-3.658l1.024-.576h167.173l1.204.764a4.835 4.835 0 0 1 1.838 2.05l.634 1.287.071 22.428.072 22.428 14.877-.143c21.74-.208 22.64-.198 23.894.27 1.3.485 2.303 1.48 2.93 2.907.437.997.461 3.602.411 45.111-.03 24.23-.127 44.53-.217 45.112-.217 1.395-.78 2.508-1.646 3.25-.68.583-.687.614-.188.903.514.297.514.301 0 .502-.723.283-72.363.255-73.013-.028-.514-.224-.512-.236.066-.41.687-.205.777-.592.192-.817-.223-.085-.69-.647-1.04-1.248-.635-1.092-.637-1.113-.853-12.603l-.217-11.51-16.389-.068c-9.302-.039-16.49.033-16.624.167-.558.558.71 10.612 1.544 12.232.405.789 3.82 4.049 5.848 5.583.751.568 1.431 1.202 1.51 1.408.249.648-.395 2.002-1.074 2.26-.969.369-53.752.325-54.814-.045-1.58-.55-1.388-2.178.401-3.404.52-.357 2.116-1.785 3.545-3.173 2.273-2.207 2.65-2.704 3.01-3.953.462-1.608.825-4.423 1.088-8.427l.178-2.712h-49.27v11.121c0 12.03-.004 12.074-1.465 13.81-.374.444-.621.96-.55 1.146.071.185-.071.435-.317.555-.528.257-25.69.377-27.033.13zm26.185-33.64l-.005-23.283-8.395-.001H55.43l.082 3.166c.098 3.812.537 3.525-5.205 3.403L46.3 96.97v40.084h25.93l-.006-23.283zm-25.55 22.657c-.077-.202-.103-.947-.058-1.656l.082-1.29h25.135v3.175l-12.508.069c-10.468.057-12.532.009-12.65-.298zm.009-4.213c-.074-.19-.1-1.948-.06-3.905l.075-3.559h25.135v7.673l-12.508.069c-10.12.055-12.535.002-12.642-.278zm0-8.731c-.074-.191-.1-1.948-.06-3.906l.075-3.558h25.135v7.673l-12.508.068c-10.12.056-12.535.002-12.642-.278zm.004-8.72c-.071-.185-.098-4.086-.06-8.669l.071-8.331h25.135v17.196l-12.508.07c-9.914.054-12.536-.002-12.638-.268zm9.254-18.272c-.074-.195-.1-1.536-.059-2.98l.076-2.628h15.875v5.821l-7.878.07c-6.378.057-7.904.003-8.014-.283zm208.221 1.898c.106-21.265.094-38.738-.025-38.827-.119-.09-13.224-.131-29.122-.091l-28.906.073v77.509h57.861l.192-38.664zm-57.401 26.43c-.07-.183-.097-5.513-.06-11.843l.07-11.51h17.991v23.549l-8.936.07c-7.007.054-8.964-.003-9.065-.265zm19.58 0c-.071-.183-.098-5.513-.06-11.843l.069-11.51h17.463v23.549l-8.672.07c-6.796.054-8.7-.004-8.8-.265zm19.05 0c-.071-.183-.098-5.513-.06-11.843l.069-11.51h17.992v23.549l-8.937.07c-7.007.054-8.964-.003-9.065-.265zm-38.63-25.137c-.07-.183-.097-6.702-.059-14.487l.069-14.155h56.62v28.84l-28.251.067c-22.462.053-28.279-.001-28.38-.265zm-.268-30.169c-.073-.19-.1-2.423-.06-4.965l.073-4.62h14.023v9.789l-6.952.07c-5.515.056-6.979 0-7.084-.274zm15.08-.268c-.072-.188-.099-2.302-.058-4.698l.073-4.355h41.804v9.26l-20.844.068c-16.861.055-20.869.002-20.975-.275zM196.631 97.37l.1-1.056-12.442-.068-12.442-.069v-25.93l12.44-.132 12.441-.133.066-1.058c.036-.582-.033-1.207-.153-1.389-.173-.262-13.615-.344-65.158-.396l-64.94-.067V27.384h154.781l.132 10.99.133 10.989 1.256.077 1.257.077V7.144H63.765V79.9l1.256-.064 1.257-.064.132-4.763.133-4.762h49.477v25.929l-20.38.068-20.38.068.101 1.056.1 1.057H196.53zm-77.447-1.39c-.07-.183-.096-6.047-.058-13.032l.069-12.7h49.477v25.928l-24.68.068c-19.604.053-24.707-.001-24.808-.265zM66.266 24.274c-.07-.185-.097-3.61-.058-7.609l.07-7.272h38.1v15.081l-18.991.068c-15.165.054-19.018 0-19.12-.268zm41.01-.267c-.07-.184-.097-3.488-.058-7.342l.07-7.008h114.036V24.21l-56.96.067c-45.802.054-56.985.001-57.088-.269z" fill="#d6d6d6"/><path d="M201.745 147.394c-1.405-.143-1.732-.295-2.845-1.324-.79-.729-1.352-1.516-1.509-2.112-.137-.523-.333-6.027-.435-12.231l-.186-11.28-1.188-.163c-.653-.09-4.415-.172-8.36-.182-4.252-.01-6.958-.111-6.644-.246.291-.125 1.08-.236 1.752-.246 1.08-.016 1.496-.222 3.572-1.766 3.134-2.332 4.76-3.72 7.84-6.691l2.579-2.49v-3.359H88.597l.57.728c2.706 3.46 7.788 8.27 12.262 11.607 2.344 1.748 2.747 1.955 3.842 1.971.673.01 1.462.121 1.753.246.318.137-2.054.25-5.953.283-3.565.03-10.828.127-16.14.217l-9.657.162-.132 11.662-.133 11.663-.71.905a112.85 112.85 0 0 1-1.364 1.699l-.653.794-12.856.073-12.855.074-1.234-1.132c-2.367-2.172-2.18.533-2.234-32.231-.035-21.003.035-29.26.253-30.051.375-1.353 1.076-2.263 2.355-3.059.916-.569 1.347-.624 5.883-.746l4.895-.132.132-37.857.132-37.856.794-1.282c.521-.841 1.194-1.492 1.96-1.897L60.673.53h166.544l1.269.86c.732.497 1.5 1.307 1.815 1.918.54 1.043.549 1.392.618 23.747l.07 22.688h14.773c13.074 0 14.87-.05 15.629-.428.65-.324 1.22-.384 2.355-.245.825.1 2.51.265 3.748.366 2.643.216 3.7.705 4.66 2.157 1.188 1.794 1.265 4.025 1.024 29.503-.077 8.149-.17 25.473-.207 38.497-.075 26.677.085 24.728-2.178 26.582-1.095.898-1.53 1.077-3.017 1.243-2.08.231-63.751.21-66.031-.023zm-129.45-30.117c.037-11.024.032-21.621-.012-23.55l-.081-3.509-13.016.069-13.016.068-.069 23.151c-.037 12.733-.011 23.3.058 23.482.099.258 2.964.33 13.096.33h12.97zm-25.62 19.15c-.077-.201-.103-.946-.058-1.655l.082-1.29h25.135v3.175l-12.508.069c-10.468.057-12.532.009-12.65-.298zm.009-4.212c-.074-.19-.1-1.948-.06-3.905l.075-3.559h25.135v7.673l-12.508.069c-10.12.055-12.535.002-12.642-.278zm0-8.731c-.074-.191-.1-1.948-.06-3.906l.075-3.558h25.135v7.673l-12.508.068c-10.12.056-12.535.002-12.642-.278zm.004-8.72c-.071-.185-.098-4.086-.06-8.669l.071-8.331h25.135v17.196l-12.508.07c-9.914.054-12.536-.002-12.638-.268zm-.064-17.886c-.252-.16-.32-.997-.265-3.237l.075-3.021 4.346-.073c3.3-.056 4.398.008 4.56.264.349.55.268 5.61-.095 5.974-.367.367-8.059.45-8.621.093zm9.318-.386c-.074-.195-.1-1.536-.059-2.98l.076-2.628h15.875v5.821l-7.878.07c-6.378.057-7.904.003-8.014-.283zm208.377 1.8V59.264l-29.17.068-29.17.067-.069 38.63c-.037 21.245-.011 38.777.058 38.959.1.262 6.192.33 29.238.33h29.113zm-57.557 26.529c-.07-.184-.097-5.514-.06-11.844l.07-11.51h17.991v23.549l-8.936.07c-7.007.054-8.964-.003-9.065-.265zm19.58 0c-.071-.184-.098-5.514-.06-11.844l.069-11.51h17.463v23.549l-8.672.07c-6.796.054-8.7-.004-8.8-.265zm19.05 0c-.071-.184-.098-5.514-.06-11.844l.069-11.51h17.992v23.549l-8.937.07c-7.007.054-8.964-.003-9.065-.265zm-38.63-25.138c-.07-.183-.097-6.702-.059-14.487l.069-14.155h56.62v28.84l-28.251.067c-22.462.053-28.279-.001-28.38-.265zm-.268-30.169c-.073-.19-.1-2.423-.06-4.965l.073-4.62h14.023v9.789l-6.952.07c-5.515.056-6.979 0-7.084-.274zm15.08-.268c-.072-.188-.099-2.302-.058-4.698l.073-4.355h41.804v9.26l-20.844.068c-16.861.055-20.869.002-20.975-.275zm-24.506 28.827c.052-.266.021-.77-.067-1.122l-.16-.637-12.497-.07-12.497-.068V70.247l12.568-.132 12.567-.133v-2.645l-65.22-.133-65.22-.132V27.384h154.782l.069 11.18.069 11.178h2.908l-.068-21.365-.068-21.365H63.632l-.067 36.366c-.037 20 .023 36.442.132 36.535.11.092.763.117 1.45.054l1.252-.115.072-4.803.072-4.802h49.477v25.929l-20.44.068-20.438.068v1.012c0 .557.08 1.093.177 1.19.097.097 27.51.147 60.916.11 58.609-.064 60.743-.084 60.833-.55zm-77.884-2.094c-.07-.183-.096-6.047-.058-13.032l.069-12.7h49.477v25.929l-24.68.068c-19.604.053-24.707-.001-24.808-.265zM66.266 24.274c-.07-.185-.097-3.61-.058-7.609l.07-7.272h38.1v15.081l-18.991.068c-15.165.054-19.018 0-19.12-.268zm41.01-.267c-.07-.184-.097-3.488-.058-7.342l.07-7.008h114.036V24.21l-56.96.067c-45.802.054-56.985.001-57.088-.269zm8.798 117.694c-.248-.248-.451-.58-.451-.735 0-.156 1.712-1.931 3.804-3.944l3.805-3.659.572-2.057c.389-1.4.655-3.453.833-6.423.143-2.4.313-4.514.378-4.696.091-.26 4.11-.33 18.894-.33 10.328 0 18.837.094 18.908.21.072.115.264 2.168.427 4.563.277 4.05.684 6.512 1.362 8.24.29.738 5.375 5.85 6.646 6.68.503.329.727.7.727 1.206 0 1.348-.293 1.404-6.281 1.19-7.393-.266-33.148-.269-42.017-.006-6.564.195-7.192.175-7.607-.239zm25.327-25.727c-.339-.365-.815-1.264-1.059-1.996-.361-1.09-.387-1.514-.139-2.342.362-1.206 1.398-2.098 2.436-2.098.56 0 .852-.194 1.145-.762.414-.8.892-1.09 1.793-1.09.47 0 .523.121.396.902-.131.808-.066.936.627 1.223.782.324 1.088 1.352.508 1.71-.405.251-.314 1.615.133 1.985.591.491.48 1.447-.27 2.34-.641.761-.755.793-2.811.793-1.949 0-2.199-.06-2.76-.665z" fill="#b2deee"/><path d="M201.745 147.394c-1.405-.143-1.732-.295-2.845-1.324-.79-.729-1.352-1.516-1.509-2.112-.137-.523-.333-6.027-.435-12.231l-.186-11.28-1.188-.163c-.653-.09-4.415-.172-8.36-.182-4.252-.01-6.958-.111-6.644-.246.291-.125 1.08-.236 1.752-.246 1.08-.016 1.496-.222 3.572-1.766 3.134-2.332 4.76-3.72 7.84-6.691l2.579-2.49v-3.359H88.597l.57.728c2.706 3.46 7.788 8.27 12.262 11.607 2.344 1.748 2.747 1.955 3.842 1.971.673.01 1.462.121 1.753.246.318.137-2.054.25-5.953.283-3.565.03-10.828.127-16.14.217l-9.657.162-.132 11.662-.133 11.663-.71.905a112.85 112.85 0 0 1-1.364 1.699l-.653.794-12.856.073-12.855.074-1.234-1.132c-2.367-2.172-2.18.533-2.234-32.231-.035-21.003.035-29.26.253-30.051.375-1.353 1.076-2.263 2.355-3.059.916-.569 1.347-.624 5.883-.746l4.895-.132.132-37.857.132-37.856.794-1.282c.521-.841 1.194-1.492 1.96-1.897L60.673.53h166.544l1.269.86c.732.497 1.5 1.307 1.815 1.918.54 1.043.549 1.392.618 23.747l.07 22.688h14.773c13.074 0 14.87-.05 15.629-.428.65-.324 1.22-.384 2.355-.245.825.1 2.51.265 3.748.366 2.643.216 3.7.705 4.66 2.157 1.188 1.794 1.265 4.025 1.024 29.503-.077 8.149-.17 25.473-.207 38.497-.075 26.677.085 24.728-2.178 26.582-1.095.898-1.53 1.077-3.017 1.243-2.08.231-63.751.21-66.031-.023zm-129.45-30.117c.037-11.024.032-21.621-.012-23.55l-.081-3.509-13.016.069-13.016.068-.069 23.151c-.037 12.733-.011 23.3.058 23.482.099.258 2.964.33 13.096.33h12.97zm-25.62 19.15c-.077-.201-.103-.946-.058-1.655l.082-1.29h25.135v3.175l-12.508.069c-10.468.057-12.532.009-12.65-.298zm.009-4.212c-.074-.19-.1-1.948-.06-3.905l.075-3.559h25.135v7.673l-12.508.069c-10.12.055-12.535.002-12.642-.278zm0-8.731c-.074-.191-.1-1.948-.06-3.906l.075-3.558h25.135v7.673l-12.508.068c-10.12.056-12.535.002-12.642-.278zm.004-8.72c-.071-.185-.098-4.086-.06-8.669l.071-8.331h25.135v17.196l-12.508.07c-9.914.054-12.536-.002-12.638-.268zm.196-18.244c-.43-.43-.43-5.02 0-5.45.217-.217 1.5-.318 4.048-.318 2.55 0 3.831.1 4.048.318.2.2.318 1.205.318 2.725s-.117 2.525-.318 2.725c-.217.217-1.499.318-4.048.318s-3.83-.101-4.048-.318zm9.058-.028c-.074-.195-.1-1.536-.059-2.98l.076-2.628h15.875v5.821l-7.878.07c-6.378.057-7.904.003-8.014-.283zm208.377 1.8V59.264l-29.17.068-29.17.067-.069 38.63c-.037 21.245-.011 38.777.058 38.959.1.262 6.192.33 29.238.33h29.113zm-57.557 26.529c-.07-.184-.097-5.514-.06-11.844l.07-11.51h17.991v23.549l-8.936.07c-7.007.054-8.964-.003-9.065-.265zm19.58 0c-.071-.184-.098-5.514-.06-11.844l.069-11.51h17.463v23.549l-8.672.07c-6.796.054-8.7-.004-8.8-.265zm19.05 0c-.071-.184-.098-5.514-.06-11.844l.069-11.51h17.992v23.549l-8.937.07c-7.007.054-8.964-.003-9.065-.265zm-38.63-25.138c-.07-.183-.097-6.702-.059-14.487l.069-14.155h56.62v28.84l-28.251.067c-22.462.053-28.279-.001-28.38-.265zm.04-30.512c-.315-.821-.18-8.457.155-8.793.368-.368 12.547-.457 13.117-.095.256.162.32 1.286.264 4.692l-.072 4.478-6.651.07c-5.892.063-6.67.023-6.813-.352zm14.772.075c-.072-.188-.099-2.302-.058-4.698l.073-4.355h41.804v9.26l-20.844.068c-16.861.055-20.869.002-20.975-.275zm-24.506 28.827c.052-.266.021-.77-.067-1.122l-.16-.638-12.497-.068-12.497-.069V70.247l12.568-.132 12.567-.133v-2.646l-65.22-.132-65.22-.132V27.384h154.782l.069 11.179.069 11.179h2.908l-.068-21.365-.068-21.366H63.632l-.067 36.367c-.037 20 .023 36.442.132 36.535.11.092.763.117 1.45.054l1.252-.115.072-4.803.072-4.802h49.477v25.929l-20.44.068-20.438.068v1.012c0 .557.08 1.092.177 1.19.097.097 27.51.147 60.916.11 58.609-.064 60.743-.084 60.833-.55zm-77.884-2.094c-.07-.183-.096-6.047-.058-13.032l.069-12.7h49.477v25.929l-24.68.067c-19.604.054-24.707 0-24.808-.264zM66.572 23.925c-.241-.627-.187-13.685.058-14.071.167-.263 4.113-.318 18.847-.265l18.637.068V24.21l-18.69.068c-16.873.062-18.707.027-18.852-.352zm40.704.082c-.07-.184-.097-3.488-.058-7.342l.07-7.008h114.036V24.21l-56.96.067c-45.802.054-56.985.001-57.088-.269zm8.798 117.694c-.248-.248-.451-.58-.451-.735 0-.156 1.712-1.93 3.804-3.944l3.805-3.659.572-2.057c.389-1.4.655-3.453.833-6.423.143-2.4.313-4.514.378-4.696.091-.26 4.11-.33 18.894-.33 10.328 0 18.837.094 18.908.21.072.115.264 2.168.427 4.563.277 4.05.684 6.512 1.362 8.24.29.738 5.375 5.85 6.646 6.68.503.329.727.7.727 1.206 0 1.349-.293 1.404-6.281 1.19-7.393-.266-33.148-.269-42.017-.006-6.564.195-7.192.175-7.607-.239zm25.327-25.727c-.339-.365-.815-1.264-1.059-1.996-.361-1.09-.387-1.514-.139-2.342.362-1.206 1.398-2.098 2.436-2.098.56 0 .852-.194 1.145-.762.414-.8.892-1.09 1.793-1.09.47 0 .523.121.396.902-.131.808-.066.936.627 1.223.782.324 1.088 1.353.508 1.71-.405.251-.314 1.615.133 1.985.591.491.48 1.447-.27 2.34-.641.761-.755.793-2.811.793-1.949 0-2.199-.06-2.76-.665z" fill="#fde386"/><path d="M201.745 147.394c-1.405-.143-1.732-.295-2.845-1.324-.79-.729-1.352-1.516-1.509-2.112-.137-.523-.333-6.027-.435-12.231l-.186-11.28-1.188-.163c-.653-.09-4.415-.172-8.36-.182-4.252-.01-6.958-.111-6.644-.246.291-.125 1.08-.236 1.752-.246 1.08-.016 1.496-.222 3.572-1.766 3.134-2.332 4.76-3.72 7.84-6.691l2.579-2.49v-3.359H88.597l.57.728c2.706 3.46 7.788 8.27 12.262 11.607 2.344 1.748 2.747 1.955 3.842 1.971.673.01 1.462.121 1.753.246.318.137-2.054.25-5.953.283-3.565.03-10.828.127-16.14.217l-9.657.162-.132 11.662-.133 11.663-.71.905a112.85 112.85 0 0 1-1.364 1.699l-.653.794-12.856.073-12.855.074-1.234-1.132c-2.367-2.172-2.18.533-2.234-32.231-.035-21.003.035-29.26.253-30.051.375-1.353 1.076-2.263 2.355-3.059.916-.569 1.347-.624 5.883-.746l4.895-.132.132-37.857.132-37.856.794-1.282c.521-.841 1.194-1.492 1.96-1.897L60.673.53h166.544l1.269.86c.732.497 1.5 1.307 1.815 1.918.54 1.043.549 1.392.618 23.747l.07 22.688h14.773c13.074 0 14.87-.05 15.629-.428.65-.324 1.22-.384 2.355-.245.825.1 2.51.265 3.748.366 2.643.216 3.7.705 4.66 2.157 1.188 1.794 1.265 4.025 1.024 29.503-.077 8.149-.17 25.473-.207 38.497-.075 26.677.085 24.728-2.178 26.582-1.095.898-1.53 1.077-3.017 1.243-2.08.231-63.751.21-66.031-.023zm-129.45-30.117c.037-11.024.032-21.621-.012-23.55l-.081-3.509-13.016.069-13.016.068-.069 23.151c-.037 12.733-.011 23.3.058 23.482.099.258 2.964.33 13.096.33h12.97zm-25.356 18.882c-.079-.205-.105-.831-.06-1.392l.085-1.02H71.57v2.646l-12.244.069c-10.317.058-12.267.01-12.387-.303zm.009-4.21c-.074-.192-.1-1.83-.06-3.64l.076-3.293H71.57v7.143l-12.244.07c-9.926.055-12.27.002-12.378-.28zm0-8.731c-.074-.192-.1-1.83-.06-3.641l.076-3.293H71.57v7.144l-12.244.069c-9.926.056-12.27.003-12.378-.28zm-.26-8.455c-.071-.184-.098-4.085-.059-8.668l.07-8.331h25.135v17.196l-12.508.07c-9.914.054-12.536-.002-12.638-.268zm.196-18.243c-.43-.43-.43-5.02 0-5.45.217-.217 1.5-.318 4.048-.318 2.55 0 3.831.1 4.048.318.2.2.318 1.205.318 2.725s-.117 2.525-.318 2.725c-.217.217-1.499.318-4.048.318s-3.83-.101-4.048-.318zm9.208-2.725v-2.778h15.61v5.556h-15.61zm208.227 4.497V59.264l-29.17.068-29.17.067-.069 38.63c-.037 21.245-.011 38.777.058 38.959.1.262 6.192.33 29.238.33h29.113zm-57.292 26.264c-.071-.184-.098-5.394-.06-11.579l.07-11.245h17.462v23.019l-8.672.07c-6.795.055-8.7-.003-8.8-.265zm19.579 0c-.07-.184-.097-5.394-.06-11.579l.07-11.245h16.933v23.019l-8.407.07c-6.584.055-8.436-.003-8.536-.265zm19.05 0c-.07-.184-.097-5.394-.06-11.579l.07-11.245h17.462v23.019l-8.672.07c-6.795.055-8.7-.003-8.8-.265zM206.76 99.683c-.07-.183-.096-6.702-.058-14.487l.069-14.155h56.62v28.84l-28.251.067c-22.462.053-28.279-.001-28.38-.265zm.04-30.512c-.314-.821-.18-8.457.156-8.793.368-.368 12.547-.457 13.117-.095.256.162.32 1.286.264 4.692l-.072 4.478-6.651.07c-5.892.063-6.67.023-6.813-.352zm14.92-4.348v-4.498h41.54v8.996h-41.54zm-24.826 18.124l.03-15.61-65.191-.133-65.191-.132V27.384h154.781l.069 11.179.069 11.179h2.908l-.068-21.365-.068-21.366H63.632l-.067 36.366c-.037 20.002.023 36.441.132 36.532.11.091.822.116 1.583.055l1.383-.11.072-4.671.072-4.672h48.948v25.4l-20.307.068-20.306.068v1.145c0 .63.08 1.224.177 1.322.097.097 27.485.147 60.86.11l60.685-.067zm-77.446 12.767c-.07-.182-.096-5.928-.059-12.767l.07-12.436h48.947v25.4l-24.415.068c-19.393.054-24.442 0-24.543-.265zm52.651 0c-.07-.183-.095-5.927-.057-12.767l.068-12.435 12.237-.069 12.237-.069v25.67h-12.179c-9.499 0-12.207-.073-12.306-.33zM66.572 23.923c-.241-.626-.187-13.684.058-14.07.167-.263 4.113-.318 18.847-.265l18.637.068V24.21l-18.69.068c-16.873.062-18.707.027-18.852-.352zm40.849-6.99V9.79h113.771v14.287H107.42zm8.653 124.767c-.248-.248-.451-.58-.451-.735 0-.156 1.712-1.931 3.804-3.944l3.805-3.659.572-2.057c.389-1.4.655-3.453.833-6.423.143-2.4.313-4.514.378-4.696.091-.26 4.11-.33 18.894-.33 10.328 0 18.837.094 18.908.21.072.115.264 2.168.427 4.563.277 4.05.684 6.512 1.362 8.24.29.738 5.375 5.85 6.646 6.68.503.329.727.7.727 1.206 0 1.348-.293 1.404-6.281 1.19-7.393-.266-33.148-.269-42.017-.006-6.564.195-7.192.175-7.607-.239zm25.327-25.727c-.339-.365-.815-1.264-1.059-1.996-.361-1.09-.387-1.514-.139-2.342.362-1.206 1.398-2.098 2.436-2.098.56 0 .852-.194 1.145-.762.414-.8.892-1.09 1.793-1.09.47 0 .523.121.396.902-.131.808-.066.936.627 1.223.782.324 1.088 1.352.508 1.71-.405.251-.314 1.615.133 1.985.591.491.48 1.447-.27 2.34-.641.761-.755.793-2.811.793-1.949 0-2.199-.06-2.76-.665z" fill="#c8c8c8"/><path d="M204.523 147.346a69.016 69.016 0 0 0-2.646-.451c-2.67-.398-3.987-1.49-4.463-3.706-.255-1.19-.432-13.609-.432-30.344v-7.673H136.35c-33.349 0-60.696.062-60.771.137-.076.076-.21 8.41-.3 18.52-.09 10.112-.22 18.766-.291 19.233-.174 1.143-2.06 3.475-3.193 3.948-.765.32-2.935.37-13.063.307l-12.146-.076-1.463-1.445c-.919-.908-1.517-1.744-1.609-2.249-.117-.644-.385-37.292-.302-41.286.035-1.689.01-3.639-.057-4.497-.034-.437.004-3.744.084-7.348.16-7.203.207-7.426 1.853-8.87 1.334-1.172 2.395-1.374 7.23-1.376h4.3V42.98c0-25.928.087-37.535.288-38.333.37-1.472 1.635-2.996 3-3.617 1.04-.472 3.898-.489 83.892-.489 79.537 0 82.857.02 83.875.482 1.222.555 2.676 2.097 2.97 3.15.112.397.203 10.783.203 23.08 0 14.44.093 22.423.262 22.544.428.306 29.818-.052 30.475-.371.329-.16 1.288-.217 2.248-.132a136.6 136.6 0 0 0 3.66.256c2.761.15 3.86.781 4.89 2.811.56 1.105.837 6.329.716 13.52-.045 2.693-.134 21.016-.198 40.719-.074 22.745-.214 36.182-.382 36.808-.542 2.012-1.79 2.97-4.762 3.653-1.464.337-6.208.406-31.882.459-16.833.035-30.689-.042-31.353-.173zM72.43 113.705l.068-23.482H46.037v47.1l13.164-.068 13.163-.069zm-25.49 22.454c-.079-.205-.105-.831-.06-1.392l.085-1.02H71.57v2.646l-12.244.069c-10.317.058-12.267.01-12.387-.303zm.009-4.21c-.074-.192-.1-1.83-.06-3.64l.076-3.293H71.57v7.143l-12.244.07c-9.926.055-12.27.002-12.378-.28zm0-8.731c-.074-.192-.1-1.83-.06-3.641l.076-3.293H71.57v7.144l-12.244.069c-9.926.056-12.27.003-12.378-.28zm-.26-8.455c-.071-.184-.098-4.085-.059-8.668l.07-8.331h25.134v17.196l-12.508.07c-9.914.054-12.536-.002-12.638-.268zm.196-18.243c-.43-.43-.43-5.02 0-5.45.217-.217 1.5-.318 4.048-.318 2.55 0 3.831.1 4.048.318.2.2.318 1.205.318 2.725s-.117 2.525-.318 2.725c-.217.217-1.499.318-4.048.318s-3.83-.101-4.048-.318zm9.208-2.725v-2.778h15.61v5.556h-15.61zm208.324 4.585c.15-31.535.12-38.985-.155-39.179-.198-.14-5.02-.176-11.584-.087-6.185.083-19.252.152-29.038.152h-17.793v78.053h58.386zm-57.39 26.176c-.07-.184-.097-5.394-.059-11.579l.07-11.245H224.5v23.019l-8.672.07c-6.795.055-8.7-.003-8.8-.265zm19.58 0c-.07-.184-.097-5.394-.06-11.579l.07-11.245h16.933v23.019l-8.407.07c-6.584.055-8.436-.003-8.536-.265zm19.05 0c-.07-.184-.097-5.394-.06-11.579l.07-11.245h17.462v23.019l-8.672.07c-6.795.055-8.7-.003-8.8-.265zM206.76 99.683c-.07-.183-.096-6.702-.058-14.487l.069-14.155h56.62v28.84l-28.251.067c-22.462.053-28.279-.001-28.38-.265zm.04-30.512c-.314-.821-.18-8.457.156-8.793.368-.368 12.547-.457 13.117-.095.256.162.32 1.286.264 4.692l-.072 4.478-6.651.07c-5.892.063-6.67.023-6.813-.352zm14.92-4.348v-4.498h41.54v8.996h-41.54zm-24.739 18.124V67.205l-65.22-.066-65.22-.067V27.384h154.782v22.358h3.175l-.07-21.431-.068-21.432H63.5v36.645c0 30.726.058 36.645.36 36.645.198 0 .91-.075 1.581-.168l1.222-.167.072-4.661.072-4.661h48.948v25.4l-20.307.067-20.306.068v2.643h121.84zM119.45 95.714c-.07-.182-.096-5.928-.059-12.767l.07-12.436h48.947v25.4l-24.415.068c-19.393.054-24.442 0-24.543-.265zm52.651 0c-.07-.183-.095-5.927-.057-12.767l.068-12.435 12.237-.069 12.237-.069v25.67h-12.179c-9.499 0-12.207-.073-12.306-.33zM66.572 23.923c-.241-.626-.187-13.684.058-14.07.167-.263 4.113-.318 18.847-.265l18.637.068V24.21l-18.69.068c-16.873.062-18.707.027-18.852-.352zm40.849-6.99V9.79h113.771v14.287H107.42zm59.134 124.872c-2.713-.202-4.968-.806-3.572-.957.364-.039 2.477-.106 4.697-.149 3.722-.072 4.035-.041 4.035.394 0 .514-1.014 1.01-1.936.948-.318-.022-1.769-.128-3.224-.236zm-50.579-.404c-.087-.228-.054-.497.075-.598.128-.1 3.031-.122 6.451-.046 3.42.075 6.04.217 5.82.314-.995.445-4.225.745-8.033.745-3.527 0-4.178-.063-4.313-.415zm3.086-3.25c0-.125.958-1.25 2.128-2.5 2.986-3.192 3.449-4.524 3.666-10.549.088-2.425.25-4.5.36-4.61.26-.26 36.706-.32 37.265-.062.35.162.455.933.61 4.507.275 6.352.72 7.635 3.767 10.881 1.07 1.14 1.946 2.182 1.946 2.315 0 .146-9.967.243-24.87.243-13.68 0-24.872-.101-24.872-.226zm22.549-22.334c-.703-.748-1.382-2.342-1.382-3.242 0-.889.663-2.156 1.308-2.501.28-.15.845-.273 1.256-.273.566 0 .827-.182 1.08-.753.416-.94 1.589-1.56 1.819-.961.084.22.09.642.012.939-.105.4.027.604.506.786.803.305 1.079.962.676 1.608-.45.72-.376 1.396.236 2.174.454.578.492.788.23 1.293-.717 1.386-1.011 1.529-3.149 1.529-1.766 0-2.102-.078-2.592-.6z" fill="#61d2fd"/><path d="M204.523 147.346a69.016 69.016 0 0 0-2.646-.451c-2.67-.398-3.987-1.49-4.463-3.706-.255-1.19-.432-13.609-.432-30.344v-7.673H136.35c-33.349 0-60.696.062-60.771.137-.076.076-.21 8.41-.3 18.52-.09 10.112-.22 18.766-.291 19.233-.174 1.143-2.06 3.475-3.193 3.948-.765.32-2.935.37-13.063.307l-12.146-.076-1.463-1.445c-.919-.908-1.517-1.744-1.609-2.249-.117-.644-.385-37.292-.302-41.286.035-1.689.01-3.639-.057-4.497-.034-.437.004-3.744.084-7.348.16-7.203.207-7.426 1.853-8.87 1.334-1.172 2.395-1.374 7.23-1.376h4.3V42.98c0-25.928.087-37.535.288-38.333.37-1.472 1.635-2.996 3-3.617 1.04-.472 3.898-.489 83.892-.489 79.537 0 82.857.02 83.875.482 1.222.555 2.676 2.097 2.97 3.15.112.397.203 10.783.203 23.08 0 14.44.093 22.423.262 22.544.428.306 29.818-.052 30.475-.371.329-.16 1.288-.217 2.248-.132a136.6 136.6 0 0 0 3.66.256c2.761.15 3.86.781 4.89 2.811.56 1.105.837 6.329.716 13.52-.045 2.693-.134 21.016-.198 40.719-.074 22.745-.214 36.182-.382 36.808-.542 2.012-1.79 2.97-4.762 3.653-1.464.337-6.208.406-31.882.459-16.833.035-30.689-.042-31.353-.173zM72.43 113.705l.068-23.482H46.037v47.1l13.164-.068 13.163-.069zm-25.49 22.454c-.079-.205-.105-.831-.06-1.392l.085-1.02H71.57v2.646l-12.244.069c-10.317.058-12.267.01-12.387-.303zm.009-4.21c-.074-.192-.1-1.83-.06-3.64l.076-3.293H71.57v7.143l-12.244.07c-9.926.055-12.27.002-12.378-.28zm0-8.731c-.074-.192-.1-1.83-.06-3.641l.076-3.293H71.57v7.144l-12.244.069c-9.926.056-12.27.003-12.378-.28zm-.26-8.455c-.071-.184-.098-4.085-.059-8.668l.07-8.331h25.134v17.196l-12.508.07c-9.914.054-12.536-.002-12.638-.268zm9.404-20.968v-2.778h15.61v5.556h-15.61zm-8.996 0V91.28h7.673v5.028h-7.673zm217.32 4.585c.15-31.535.12-38.985-.155-39.179-.198-.14-5.02-.176-11.584-.087-6.185.083-19.252.152-29.038.152h-17.793v78.053h58.386zm-57.39 26.176c-.07-.184-.097-5.394-.059-11.579l.07-11.245H224.5v23.019l-8.672.07c-6.795.055-8.7-.003-8.8-.265zm19.58 0c-.07-.184-.097-5.394-.06-11.579l.07-11.245h16.933v23.019l-8.407.07c-6.584.055-8.436-.003-8.536-.265zm19.05 0c-.07-.184-.097-5.394-.06-11.579l.07-11.245h17.462v23.019l-8.672.07c-6.795.055-8.7-.003-8.8-.265zM206.76 99.683c-.07-.183-.096-6.702-.058-14.487l.069-14.155h56.62v28.84l-28.251.067c-22.462.053-28.279-.001-28.38-.265zm.589-30.534c-.1-.1-.181-2.068-.181-4.375V60.58l6.416.071 6.416.071v8.467l-6.235.07c-3.43.04-6.317-.01-6.416-.11zm14.37-4.326v-4.498h41.54v8.996h-41.54zm-24.738 18.124V67.205l-65.22-.066-65.22-.067V27.384h154.782v22.358h3.175l-.07-21.431-.068-21.432H63.5v36.645c0 30.726.058 36.645.36 36.645.198 0 .91-.075 1.581-.168l1.222-.167.072-4.661.072-4.661h48.948v25.4l-20.307.067-20.306.068v2.643h121.84zM119.45 95.714c-.07-.182-.096-5.928-.059-12.767l.07-12.436h48.947v25.4l-24.415.068c-19.393.054-24.442 0-24.543-.265zm52.651 0c-.07-.183-.095-5.927-.057-12.767l.068-12.435 12.237-.069 12.237-.069v25.67h-12.179c-9.499 0-12.207-.073-12.306-.33zM67.06 23.743c-.072-.186-.098-3.372-.059-7.08l.07-6.742h36.779v14.023l-18.33.068c-14.654.054-18.356 0-18.46-.27zm40.36-6.81V9.79h113.772v14.287H107.42zm59.135 124.872c-2.713-.202-4.968-.806-3.572-.957.364-.039 2.477-.106 4.697-.149 3.722-.072 4.035-.041 4.035.394 0 .514-1.014 1.01-1.936.948-.318-.022-1.769-.128-3.224-.236zm-50.579-.404c-.087-.228-.054-.497.075-.598.128-.1 3.031-.122 6.451-.046 3.42.075 6.04.217 5.82.314-.995.445-4.225.745-8.033.745-3.527 0-4.178-.063-4.313-.415zm3.086-3.25c0-.125.958-1.25 2.128-2.5 2.986-3.192 3.449-4.524 3.666-10.549.088-2.425.25-4.5.36-4.61.26-.26 36.706-.32 37.265-.062.35.162.455.933.61 4.507.275 6.352.72 7.635 3.767 10.881 1.07 1.14 1.946 2.182 1.946 2.315 0 .146-9.967.243-24.87.243-13.68 0-24.872-.101-24.872-.226zm22.549-22.334c-.703-.748-1.382-2.342-1.382-3.242 0-.889.663-2.156 1.308-2.501.28-.15.845-.273 1.256-.273.566 0 .827-.182 1.08-.753.416-.94 1.589-1.56 1.819-.961.084.22.09.642.012.939-.105.4.027.604.506.786.803.305 1.079.962.676 1.608-.45.72-.376 1.396.236 2.174.454.578.492.788.23 1.293-.717 1.386-1.011 1.529-3.149 1.529-1.766 0-2.102-.078-2.592-.6z" fill="#fba687"/><path d="M204.523 147.346a69.016 69.016 0 0 0-2.646-.451c-2.67-.398-3.987-1.49-4.463-3.706-.255-1.19-.432-13.609-.432-30.344v-7.673H136.35c-33.349 0-60.696.062-60.771.137-.076.076-.21 8.41-.3 18.52-.09 10.112-.22 18.766-.291 19.233-.174 1.143-2.06 3.475-3.193 3.948-.765.32-2.935.37-13.063.307l-12.146-.076-1.463-1.445c-.919-.908-1.517-1.744-1.609-2.249-.117-.644-.385-37.292-.302-41.286.035-1.689.01-3.639-.057-4.497-.034-.437.004-3.744.084-7.348.16-7.203.207-7.426 1.853-8.87 1.334-1.172 2.395-1.374 7.23-1.376h4.3V42.98c0-25.928.087-37.535.288-38.333.37-1.472 1.635-2.996 3-3.617 1.04-.472 3.898-.489 83.892-.489 79.537 0 82.857.02 83.875.482 1.222.555 2.676 2.097 2.97 3.15.112.397.203 10.783.203 23.08 0 14.44.093 22.423.262 22.544.428.306 29.818-.052 30.475-.371.329-.16 1.288-.217 2.248-.132a136.6 136.6 0 0 0 3.66.256c2.761.15 3.86.781 4.89 2.811.56 1.105.837 6.329.716 13.52-.045 2.693-.134 21.016-.198 40.719-.074 22.745-.214 36.182-.382 36.808-.542 2.012-1.79 2.97-4.762 3.653-1.464.337-6.208.406-31.882.459-16.833.035-30.689-.042-31.353-.173zM72.43 113.705l.068-23.482H46.037v47.1l13.164-.068 13.163-.069zm-25.49 22.454c-.079-.205-.105-.831-.06-1.392l.085-1.02H71.57v2.646l-12.244.069c-10.317.058-12.267.01-12.387-.303zm.009-4.21c-.074-.192-.1-1.83-.06-3.64l.076-3.293H71.57v7.143l-12.244.07c-9.926.055-12.27.002-12.378-.28zm0-8.731c-.074-.192-.1-1.83-.06-3.641l.076-3.293H71.57v7.144l-12.244.069c-9.926.056-12.27.003-12.378-.28zm-.117-16.855v-8.467h24.87v16.933H46.831zm9.375-10.138c-.075-.195-.102-1.418-.06-2.716l.078-2.36H71.57v5.292l-7.614.07c-6.18.057-7.639.003-7.75-.286zm-9.11-2.43V91.28h7.673v5.028h-7.673zm217.32 4.585c.15-31.535.12-38.985-.155-39.179-.198-.14-5.02-.176-11.584-.087-6.185.083-19.252.152-29.038.152h-17.793v78.053h58.386zm-57.39 26.176c-.07-.184-.097-5.394-.059-11.579l.07-11.245H224.5v23.019l-8.672.07c-6.795.055-8.7-.003-8.8-.265zm19.58 0c-.07-.184-.097-5.394-.06-11.579l.07-11.245h16.933v23.019l-8.407.07c-6.584.055-8.436-.003-8.536-.265zm19.05 0c-.07-.184-.097-5.394-.06-11.579l.07-11.245h17.462v23.019l-8.672.07c-6.795.055-8.7-.003-8.8-.265zM206.904 85.46V71.173h56.356v28.575h-56.356zm.446-16.31c-.1-.1-.181-2.07-.181-4.376V60.58l6.416.071 6.416.071v8.467l-6.235.07c-3.43.04-6.317-.01-6.416-.11zm14.488-.17c-.072-.188-.099-2.183-.058-4.433l.073-4.09h41.275v8.732l-20.579.067c-16.674.055-20.604.003-20.71-.275zm-24.73 6.944c.005-19.905.056-22.864.41-23.548.55-1.066.257-.997-.33.078-.416.76-.47 1.643-.47 7.606v6.747l-65.022.067-65.021.067V27.517h154.517v21.696l-9.591.03c-5.276.018-9.949.123-10.385.234-.437.111 4.623.216 11.244.233l12.039.032-.07-21.432-.068-21.43H63.5v36.644c0 30.726.058 36.645.36 36.645.198 0 .91-.076 1.581-.168l1.222-.167.072-4.661.072-4.662h48.948v25.4l-20.307.068-20.306.068v2.643h121.962l.004-22.766zm-77.66 19.79c-.07-.182-.095-5.928-.058-12.767l.07-12.436h48.947v25.4l-24.415.068c-19.393.054-24.442 0-24.543-.265zm52.652 0c-.07-.183-.095-5.927-.057-12.767l.068-12.435 12.237-.069 12.237-.069v25.67h-12.179c-9.499 0-12.207-.073-12.306-.33zM67.06 23.743c-.072-.186-.098-3.372-.059-7.08l.07-6.742h36.779v14.023l-18.33.068c-14.654.054-18.356 0-18.46-.27zm40.48-.001c-.07-.185-.097-3.37-.058-7.079l.071-6.742H221.06v14.023l-56.695.067c-45.625.053-56.72 0-56.824-.27zm59.015 118.063c-2.713-.201-4.968-.805-3.572-.956.364-.04 2.477-.107 4.697-.15 3.722-.071 4.035-.04 4.035.394 0 .514-1.014 1.01-1.936.948a861.47 861.47 0 0 1-3.224-.236zm-50.579-.404c-.087-.228-.054-.497.075-.598.128-.1 3.031-.122 6.451-.046 3.42.075 6.04.217 5.82.314-.995.445-4.225.745-8.033.745-3.527 0-4.178-.063-4.313-.415zm3.086-3.25c0-.125.958-1.25 2.128-2.5 2.986-3.192 3.449-4.524 3.666-10.549.088-2.425.25-4.5.36-4.61.26-.26 36.706-.32 37.265-.062.35.162.455.933.61 4.507.275 6.352.72 7.635 3.767 10.881 1.07 1.14 1.946 2.182 1.946 2.315 0 .146-9.967.243-24.87.243-13.68 0-24.872-.101-24.872-.226zm22.549-22.334c-.703-.748-1.382-2.342-1.382-3.242 0-.889.663-2.156 1.308-2.501.28-.15.845-.273 1.256-.273.566 0 .827-.182 1.08-.753.416-.94 1.589-1.56 1.819-.961.084.22.09.642.012.939-.105.4.027.604.506.786.803.305 1.079.962.676 1.608-.45.72-.376 1.396.236 2.174.454.578.492.788.23 1.293-.717 1.386-1.011 1.529-3.149 1.529-1.766 0-2.102-.078-2.592-.6z" fill="#fdd546"/><path d="M204.523 147.346a69.016 69.016 0 0 0-2.646-.451c-2.67-.398-3.987-1.49-4.463-3.706-.255-1.19-.432-13.609-.432-30.344v-7.673H136.35c-33.349 0-60.696.062-60.771.137-.076.076-.21 8.41-.3 18.52-.09 10.112-.22 18.766-.291 19.233-.174 1.143-2.06 3.475-3.193 3.948-.765.32-2.935.37-13.063.307l-12.146-.076-1.463-1.445c-.919-.908-1.517-1.744-1.609-2.249-.117-.644-.385-37.292-.302-41.286.035-1.689.01-3.639-.057-4.497-.034-.437.004-3.744.084-7.348.16-7.203.207-7.426 1.853-8.87 1.334-1.172 2.395-1.374 7.23-1.376h4.3V42.98c0-25.928.087-37.535.288-38.333.37-1.472 1.635-2.996 3-3.617 1.04-.472 3.898-.489 83.892-.489 79.537 0 82.857.02 83.875.482 1.222.555 2.676 2.097 2.97 3.15.112.397.203 10.783.203 23.08 0 14.44.093 22.423.262 22.544.428.306 29.818-.052 30.475-.371.329-.16 1.288-.217 2.248-.132a136.6 136.6 0 0 0 3.66.256c2.761.15 3.86.781 4.89 2.811.56 1.105.837 6.329.716 13.52-.045 2.693-.134 21.016-.198 40.719-.074 22.745-.214 36.182-.382 36.808-.542 2.012-1.79 2.97-4.762 3.653-1.464.337-6.208.406-31.882.459-16.833.035-30.689-.042-31.353-.173zM72.43 113.705l.068-23.482H46.037v47.1l13.164-.068 13.163-.069zm-25.6-7.342v-8.467h24.872v16.933H46.831zm9.375-10.138c-.075-.195-.102-1.418-.06-2.716l.078-2.36H71.57v5.292l-7.614.07c-6.18.057-7.639.003-7.75-.286zm-9.11-2.43V91.28h7.673v5.028h-7.673zm217.32 4.585c.15-31.535.12-38.985-.155-39.179-.198-.14-5.02-.176-11.584-.087-6.185.083-19.252.152-29.038.152h-17.793v78.053h58.386zm-57.512-12.92V71.173h56.356v28.575h-56.356zm.446-16.31c-.1-.1-.181-2.07-.181-4.376V60.58l6.416.071 6.416.071v8.467l-6.235.07c-3.43.04-6.317-.01-6.416-.11zm14.488-.17c-.072-.188-.099-2.183-.058-4.433l.073-4.09h41.276v8.732l-20.579.067c-16.674.055-20.604.003-20.71-.275zm-24.73 6.944c.005-19.905.056-22.864.41-23.548.55-1.066.257-.997-.33.078-.416.76-.47 1.643-.47 7.606v6.747l-65.022.067-65.021.067V27.517h154.517v21.696l-9.591.03c-5.276.018-9.949.123-10.385.234-.437.111 4.623.216 11.244.233l12.039.032-.07-21.432-.068-21.43H63.5v73.158l3.903-.002c4.641 0 5.507.292 6.86 2.316 1.118 1.673 1.25 2.946 1.077 10.311l-.142 6.026h121.906l.004-22.766zM67.06 23.744c-.072-.186-.098-3.372-.059-7.08l.07-6.742h36.779v14.023l-18.33.068c-14.654.054-18.356 0-18.46-.27zm40.48-.001c-.07-.185-.097-3.37-.058-7.079l.071-6.742H221.06v14.023l-56.695.067c-45.625.053-56.72 0-56.824-.27zm59.015 118.063c-2.713-.201-4.968-.805-3.572-.956.364-.04 2.477-.107 4.697-.15 3.722-.071 4.035-.04 4.035.394 0 .514-1.014 1.01-1.936.948a861.47 861.47 0 0 1-3.224-.236zm-50.579-.404c-.087-.228-.054-.497.075-.598.128-.1 3.031-.122 6.451-.046 3.42.075 6.04.217 5.82.314-.995.445-4.225.745-8.033.745-3.527 0-4.178-.063-4.313-.415zm3.086-3.25c0-.125.958-1.25 2.128-2.5 2.986-3.192 3.449-4.524 3.666-10.549.088-2.425.25-4.5.36-4.61.26-.26 36.706-.32 37.265-.062.35.162.455.933.61 4.507.275 6.352.72 7.635 3.767 10.881 1.07 1.14 1.946 2.182 1.946 2.315 0 .146-9.967.243-24.87.243-13.68 0-24.872-.101-24.872-.226zm22.549-22.334c-.703-.748-1.382-2.342-1.382-3.242 0-.889.663-2.156 1.308-2.501.28-.15.845-.273 1.256-.273.566 0 .827-.182 1.08-.753.416-.94 1.589-1.56 1.819-.961.084.22.09.642.012.939-.105.4.027.604.506.786.803.305 1.079.962.676 1.608-.45.72-.376 1.396.236 2.174.454.578.492.788.23 1.293-.717 1.386-1.011 1.529-3.149 1.529-1.766 0-2.102-.078-2.592-.6z" fill="#adadae"/><path d="M47.7 147.125c-.613-.1-1.386-.413-1.718-.695-1.472-1.25-2.043-1.883-2.296-2.548-.413-1.09-.458-59.098-.046-60.141.377-.955 1.73-2.418 2.715-2.933.539-.283 1.882-.375 5.462-.375 4.085 0 4.77-.058 4.908-.418.088-.23.16-17.297.16-37.926V4.58l.616-1.166c.405-.766 1.056-1.438 1.898-1.96L60.68.661h166.2l1.124.601c.619.33 1.452 1.096 1.852 1.7l.728 1.1v45.973l16.537-.132c9.095-.073 17.727-.13 19.182-.125 4.023.01 5.461.86 6.219 3.67.384 1.428.398 4.795.221 53.444-.072 19.863-.23 36.353-.352 36.644-.486 1.166-1.327 2.071-2.358 2.539-.926.42-1.775.493-5.833.498-2.975.004-4.656.1-4.498.256.138.137.906.293 1.706.348.8.054-11.225.113-26.723.13-21.583.025-28.023-.04-27.516-.275.55-.256.043-.33-3.043-.446-4.37-.164-5.201-.488-6.142-2.393-.585-1.184-.585-1.206-.686-20.236l-.1-19.05h-60.874c-33.48 0-60.936.062-61.012.138-.075.076-.219 8.768-.319 19.315-.202 21.382-.04 19.702-2.078 21.67-.723.7-1.257.953-2.332 1.106-1.735.247-21.359.237-22.882-.011zm24.467-9.76c.263-.168.318-5.093.264-23.743l-.067-23.531-12.935-.07c-9.33-.049-13.035.016-13.295.232-.5.414-.542 46.514-.044 47.013.368.368 25.502.463 26.077.098zM46.83 106.362v-8.467h24.872v16.933H46.831zm9.375-10.138c-.075-.195-.102-1.418-.06-2.716l.078-2.36H71.57v5.292l-7.614.07c-6.18.057-7.639.003-7.75-.286zm-9.11-2.43V91.28h7.673v5.028h-7.673zm217.069 43.628c.379-.146.418-3.853.418-39.29v-39.13H235.4c-22.346 0-29.258.073-29.501.317-.462.461-.462 77.484 0 77.946.243.243 7.062.317 29.082.317 15.821 0 28.954-.072 29.184-.16zm-57.26-51.963V71.173h56.356v28.575h-56.356zm.445-16.31c-.1-.1-.181-2.07-.181-4.376V60.58l6.416.071 6.416.071v8.467l-6.235.07c-3.43.04-6.317-.01-6.416-.11zm14.488-.17c-.072-.188-.099-2.183-.058-4.433l.073-4.09h41.276v8.732l-20.579.067c-16.674.055-20.604.003-20.71-.275zm-24.529 7.236l.063-22.607.599-1.192c1.203-2.396.417-2.268 14.442-2.354l12.35-.076-.067-21.223c-.037-11.673-.122-21.372-.19-21.555-.098-.264-16.362-.317-80.63-.264l-80.508.066-.067 36.414c-.054 28.931 0 36.468.264 36.68.221.177.95.18 2.184.007 2.507-.35 5.363-.145 6.637.477 1.407.687 2.668 2.614 2.886 4.41.196 1.617.006 10.316-.267 12.202-.139.96-.094 1.347.174 1.517.2.127 27.403.201 61.214.166l60.854-.062.062-22.606zM66.675 47.229V27.517h154.517v21.667l-10.12.08c-11.088.089-10.762.044-12.685 1.753-1.636 1.456-1.67 1.637-1.67 9.043v6.747l-65.02.067-65.022.067zm.385-23.485c-.072-.186-.098-3.372-.059-7.08l.07-6.742h36.779v14.023l-18.33.068c-14.654.054-18.356 0-18.46-.27zm40.48-.001c-.07-.185-.097-3.37-.058-7.079l.071-6.742H221.06v14.023l-56.695.067c-45.625.053-56.72 0-56.824-.27zm8.742 117.54c-.11-.178.355-.21 1.373-.095 2.015.227 2.12.364.277.364-.816 0-1.559-.12-1.65-.269zm53.073.175c.298-.255 1.83-.392 1.83-.164 0 .142-.436.258-.97.258-.533 0-.92-.042-.86-.094zm-47.911-5.36c0-.088.452-.713 1.004-1.388.552-.675 1.21-1.555 1.461-1.955l.457-.728h39.326l.313.688c.173.378.787 1.249 1.366 1.935.578.686 1.052 1.33 1.052 1.43 0 .099-10.12.18-22.49.18-12.369 0-22.49-.072-22.49-.161zm3.76-12.736l.076-2.58h37.306l.076 2.58.076 2.58h-37.609zm16.938-7.24c-.287-.105-.776-.716-1.085-1.355-1.221-2.522-.363-4.853 1.766-4.797.957.025 1.072-.043 1.207-.717.167-.835 1.124-1.51 1.544-1.091.17.171.161.446-.029.8-.377.706-.364.84.079.84.202 0 .625.209.939.463.549.445.554.497.139 1.33-.411.823-.405.912.128 1.815 1.02 1.73.088 2.81-2.476 2.868-.93.02-1.925-.049-2.212-.155z" fill="#37c7fd"/><path d="M47.7 147.125c-.613-.1-1.386-.413-1.718-.695-1.472-1.25-2.043-1.883-2.296-2.548-.413-1.09-.458-59.098-.046-60.141.377-.955 1.73-2.418 2.715-2.933.539-.283 1.882-.375 5.462-.375 4.085 0 4.77-.058 4.908-.418.088-.23.16-17.297.16-37.926V4.58l.616-1.166c.405-.766 1.056-1.438 1.898-1.96L60.68.661h166.2l1.124.601c.619.33 1.452 1.096 1.852 1.7l.728 1.1v45.973l16.537-.132c9.095-.073 17.727-.13 19.182-.125 4.023.01 5.461.86 6.219 3.67.384 1.428.398 4.795.221 53.444-.072 19.863-.23 36.353-.352 36.644-.486 1.166-1.327 2.071-2.358 2.539-.926.42-1.775.493-5.833.498-2.975.004-4.656.1-4.498.256.138.137.906.293 1.706.348.8.054-11.225.113-26.723.13-21.583.025-28.023-.04-27.516-.275.55-.256.043-.33-3.043-.446-4.37-.164-5.201-.488-6.142-2.393-.585-1.184-.585-1.206-.686-20.236l-.1-19.05h-60.874c-33.48 0-60.936.062-61.012.138-.075.076-.219 8.768-.319 19.315-.202 21.382-.04 19.702-2.078 21.67-.723.7-1.257.953-2.332 1.106-1.735.247-21.359.237-22.882-.011zm24.467-9.76c.263-.168.318-5.093.264-23.743l-.067-23.531-12.935-.07c-9.33-.049-13.035.016-13.295.232-.5.414-.542 46.514-.044 47.013.368.368 25.502.463 26.077.098zM46.83 106.362v-8.467h24.872v16.933H46.831zm9.375-10.138c-.075-.195-.102-1.418-.06-2.716l.078-2.36H71.57v5.292l-7.614.07c-6.18.057-7.639.003-7.75-.286zm207.959 41.198c.379-.146.418-3.853.418-39.29v-39.13H235.4c-22.346 0-29.258.073-29.501.317-.462.461-.462 77.484 0 77.946.243.243 7.062.317 29.082.317 15.821 0 28.954-.072 29.184-.16zm-57.26-51.963V71.173h56.356v28.575h-56.356zm14.933-16.48c-.072-.188-.099-2.183-.058-4.433l.073-4.09h41.276v8.732l-20.579.067c-16.674.055-20.604.003-20.71-.275zm-24.529 7.236l.063-22.607.599-1.192c1.203-2.396.417-2.268 14.442-2.354l12.35-.076-.067-21.223c-.037-11.673-.122-21.372-.19-21.555-.098-.264-16.362-.317-80.63-.264l-80.508.066-.067 36.414c-.054 28.931 0 36.468.264 36.68.221.177.95.18 2.184.007 2.507-.35 5.363-.145 6.637.477 1.407.687 2.668 2.614 2.886 4.41.196 1.617.006 10.316-.267 12.202-.139.96-.094 1.347.174 1.517.2.127 27.403.201 61.214.166l60.854-.062.062-22.606zM66.675 47.229V27.517h154.517v21.667l-10.12.08c-11.088.089-10.762.044-12.685 1.753-1.636 1.456-1.67 1.637-1.67 9.043v6.747l-65.02.067-65.022.067zm40.865-23.487c-.07-.184-.097-3.37-.058-7.078l.071-6.742H221.06v14.023l-56.695.066c-45.625.054-56.72.001-56.824-.269zm8.742 117.541c-.11-.178.355-.21 1.373-.095 2.015.227 2.12.364.277.364-.816 0-1.559-.12-1.65-.269zm53.073.175c.298-.255 1.83-.392 1.83-.164 0 .142-.436.258-.97.258-.533 0-.92-.042-.86-.094zm-47.911-5.36c0-.088.452-.713 1.004-1.388.552-.675 1.21-1.555 1.461-1.955l.457-.728h39.326l.313.688c.173.378.787 1.249 1.366 1.935.578.686 1.052 1.33 1.052 1.429 0 .1-10.12.181-22.49.181-12.369 0-22.49-.072-22.49-.161zm3.76-12.736l.076-2.58h37.306l.076 2.58.076 2.58h-37.609zm16.938-7.24c-.287-.106-.776-.716-1.085-1.355-1.221-2.522-.363-4.853 1.766-4.797.957.025 1.072-.043 1.207-.717.167-.835 1.124-1.511 1.544-1.091.17.17.161.446-.029.8-.377.706-.364.84.079.84.202 0 .625.208.939.463.549.445.554.497.139 1.33-.411.823-.405.912.128 1.815 1.02 1.73.088 2.81-2.476 2.868-.93.02-1.925-.05-2.212-.155z" fill="#fdae46"/><path d="M47.7 147.125c-.613-.1-1.386-.413-1.718-.695-1.472-1.25-2.043-1.883-2.296-2.548-.413-1.09-.458-59.098-.046-60.141.377-.955 1.73-2.418 2.715-2.933.539-.283 1.882-.375 5.462-.375 4.085 0 4.77-.058 4.908-.418.088-.23.16-17.297.16-37.926V4.58l.616-1.166c.405-.766 1.056-1.438 1.898-1.96L60.68.661h166.2l1.124.601c.619.33 1.452 1.096 1.852 1.7l.728 1.1v45.973l16.537-.132c9.095-.073 17.727-.13 19.182-.125 4.023.01 5.461.86 6.219 3.67.384 1.428.398 4.795.221 53.444-.072 19.863-.23 36.353-.352 36.644-.486 1.166-1.327 2.071-2.358 2.539-.926.42-1.775.493-5.833.498-2.975.004-4.656.1-4.498.256.138.137.906.293 1.706.348.8.054-11.225.113-26.723.13-21.583.025-28.023-.04-27.516-.275.55-.256.043-.33-3.043-.446-4.37-.164-5.201-.488-6.142-2.393-.585-1.184-.585-1.206-.686-20.236l-.1-19.05h-60.874c-33.48 0-60.936.062-61.012.138-.075.076-.219 8.768-.319 19.315-.202 21.382-.04 19.702-2.078 21.67-.723.7-1.257.953-2.332 1.106-1.735.247-21.359.237-22.882-.011zm24.467-9.76c.263-.168.318-5.093.264-23.743l-.067-23.531-12.935-.07c-9.33-.049-13.035.016-13.295.232-.5.414-.542 46.514-.044 47.013.368.368 25.502.463 26.077.098zM46.83 106.362v-8.467h24.872v16.933H46.831zm217.334 31.06c.379-.146.418-3.853.418-39.29v-39.13H235.4c-22.346 0-29.258.073-29.501.317-.462.461-.462 77.484 0 77.946.243.243 7.062.317 29.082.317 15.821 0 28.954-.072 29.184-.16zm-57.26-51.963V71.173h56.356v28.575h-56.356zm-9.596-9.244l.063-22.607.599-1.192c1.203-2.396.417-2.268 14.442-2.354l12.35-.076-.067-21.223c-.037-11.673-.122-21.372-.19-21.555-.098-.264-16.362-.317-80.63-.264l-80.508.066-.067 36.414c-.054 28.934 0 36.466.264 36.673.184.144.92.189 1.655.1.727-.09 2.435-.074 3.795.034 2.92.23 4.112.784 5.157 2.395l.705 1.087.025 6.231c.013 3.427.003 6.754-.023 7.392-.029.724.086 1.246.307 1.386.194.123 27.737.196 61.207.161l60.854-.062.062-22.606zM66.675 47.229V27.517h154.517v21.667l-10.12.08c-11.088.089-10.762.044-12.685 1.753-1.636 1.456-1.67 1.637-1.67 9.043v6.747l-65.02.067-65.022.067zm49.607 94.054c-.11-.178.355-.21 1.373-.095 2.015.227 2.12.364.277.364-.816 0-1.559-.12-1.65-.269zm53.073.175c.298-.255 1.83-.392 1.83-.164 0 .142-.436.258-.97.258-.533 0-.92-.042-.86-.094zm-47.911-5.36c0-.088.452-.713 1.004-1.388.552-.675 1.21-1.555 1.461-1.955l.457-.728h39.326l.313.688c.173.378.787 1.249 1.366 1.935.578.686 1.052 1.33 1.052 1.429 0 .1-10.12.181-22.49.181-12.369 0-22.49-.072-22.49-.161zm3.76-12.736l.076-2.58h37.306l.076 2.58.076 2.58h-37.609zm16.938-7.24c-.287-.106-.776-.716-1.085-1.355-1.221-2.522-.363-4.853 1.766-4.797.957.025 1.072-.043 1.207-.717.167-.835 1.124-1.511 1.544-1.091.17.17.161.446-.029.8-.377.706-.364.84.079.84.202 0 .625.208.939.463.549.445.554.497.139 1.33-.411.823-.405.912.128 1.815 1.02 1.73.088 2.81-2.476 2.868-.93.02-1.925-.05-2.212-.155z" fill="#fd8459"/><path d="M47.7 147.125c-.613-.1-1.386-.413-1.718-.695-1.472-1.25-2.043-1.883-2.296-2.548-.413-1.09-.458-59.098-.046-60.141.377-.955 1.73-2.418 2.715-2.933.539-.283 1.882-.375 5.462-.375 4.085 0 4.77-.058 4.908-.418.088-.23.16-17.297.16-37.926V4.58l.616-1.166c.405-.766 1.056-1.438 1.898-1.96L60.68.661h166.2l1.124.601c.619.33 1.452 1.096 1.852 1.7l.728 1.1v45.973l16.537-.132c9.095-.073 17.727-.13 19.182-.125 4.023.01 5.461.86 6.219 3.67.384 1.428.398 4.795.221 53.444-.072 19.863-.23 36.353-.352 36.644-.486 1.166-1.327 2.071-2.358 2.539-.926.42-1.775.493-5.833.498-2.975.004-4.656.1-4.498.256.138.137.906.293 1.706.348.8.054-11.225.113-26.723.13-21.583.025-28.023-.04-27.516-.275.55-.256.043-.33-3.043-.446-4.37-.164-5.201-.488-6.142-2.393-.585-1.184-.585-1.206-.686-20.236l-.1-19.05h-60.874c-33.48 0-60.936.062-61.012.138-.075.076-.219 8.768-.319 19.315-.202 21.382-.04 19.702-2.078 21.67-.723.7-1.257.953-2.332 1.106-1.735.247-21.359.237-22.882-.011zm24.467-9.76c.263-.168.318-5.093.264-23.743l-.067-23.531-12.935-.07c-9.33-.049-13.035.016-13.295.232-.5.414-.542 46.514-.044 47.013.368.368 25.502.463 26.077.098zm-25.071-31.002V98.16h24.341v16.405H47.096zm217.069 31.06c.379-.146.418-3.853.418-39.29v-39.13H235.4c-22.346 0-29.258.073-29.501.317-.462.461-.462 77.484 0 77.946.243.243 7.062.317 29.082.317 15.821 0 28.954-.072 29.184-.16zM207.169 85.46V71.438h55.827v28.045h-55.827zm-9.866-8.863c.03-12.224.123-22.6.205-23.058.082-.459.434-1.253.782-1.765.347-.512.552-1.01.456-1.107-.097-.097-.057-.144.088-.105.146.038.741-.07 1.323-.242.741-.218 4.586-.311 12.833-.312l11.774-.001-.068-21.233c-.037-11.678-.122-21.382-.19-21.564-.098-.264-16.362-.318-80.63-.265l-80.508.067-.067 36.413c-.054 28.934 0 36.467.264 36.673.184.145.92.189 1.655.1.727-.089 2.435-.073 3.795.034 2.92.23 4.112.784 5.157 2.396l.705 1.087.025 6.23c.013 3.427.003 6.754-.023 7.393-.029.724.086 1.245.307 1.385.194.123 27.737.196 61.207.162l60.854-.063.056-22.225zM66.94 47.228V27.781h153.987v21.167h-9.38c-5.603 0-9.905.113-10.686.28-1.46.313-3.213 1.638-3.952 2.988-.4.73-.454 1.681-.444 7.646l.012 6.813H66.94zm49.342 94.055c-.11-.178.355-.21 1.373-.095 2.015.227 2.12.364.277.364-.816 0-1.559-.12-1.65-.269zm53.073.175c.298-.255 1.83-.392 1.83-.164 0 .142-.436.258-.97.258-.533 0-.92-.042-.86-.094zm-47.911-5.36c0-.088.452-.713 1.004-1.388.552-.675 1.21-1.555 1.461-1.955l.457-.728h39.326l.313.688c.173.378.787 1.249 1.366 1.935.578.686 1.052 1.33 1.052 1.429 0 .1-10.12.181-22.49.181-12.369 0-22.49-.072-22.49-.161zm3.76-12.736l.076-2.58h37.306l.076 2.58.076 2.58h-37.609zm16.938-7.24c-.287-.106-.776-.716-1.085-1.355-1.221-2.522-.363-4.853 1.766-4.797.957.025 1.072-.043 1.207-.717.167-.835 1.124-1.511 1.544-1.091.17.17.161.446-.029.8-.377.706-.364.84.079.84.202 0 .625.208.939.463.549.445.554.497.139 1.33-.411.823-.405.912.128 1.815 1.02 1.73.088 2.81-2.476 2.868-.93.02-1.925-.05-2.212-.155z" fill="#fd7646"/><path d="M47.7 147.125c-.613-.1-1.386-.413-1.718-.695-1.472-1.25-2.043-1.883-2.296-2.548-.413-1.09-.458-59.098-.046-60.141.377-.955 1.73-2.418 2.715-2.933.539-.283 1.882-.375 5.462-.375 4.085 0 4.77-.058 4.908-.418.088-.23.16-17.297.16-37.926V4.58l.616-1.166c.405-.766 1.056-1.438 1.898-1.96L60.68.661h166.2l1.124.601c.619.33 1.452 1.096 1.852 1.7l.728 1.1v45.973l16.537-.132c9.095-.073 17.727-.13 19.182-.125 4.023.01 5.461.86 6.219 3.67.384 1.428.398 4.795.221 53.444-.072 19.863-.23 36.353-.352 36.644-.486 1.166-1.327 2.071-2.358 2.539-.926.42-1.775.493-5.833.498-2.975.004-4.656.1-4.498.256.138.137.906.293 1.706.348.8.054-11.225.113-26.723.13-21.583.025-28.023-.04-27.516-.275.55-.256.043-.33-3.043-.446-4.37-.164-5.201-.488-6.142-2.393-.585-1.184-.585-1.206-.686-20.236l-.1-19.05h-60.874c-33.48 0-60.936.062-61.012.138-.075.076-.219 8.768-.319 19.315-.202 21.382-.04 19.702-2.078 21.67-.723.7-1.257.953-2.332 1.106-1.735.247-21.359.237-22.882-.011zm24.467-9.76c.263-.168.318-5.093.264-23.743l-.067-23.531-12.935-.07c-9.33-.049-13.035.016-13.295.232-.5.414-.542 46.514-.044 47.013.368.368 25.502.463 26.077.098zm191.998.058c.379-.146.418-3.853.418-39.29v-39.13H235.4c-22.346 0-29.258.073-29.501.317-.462.461-.462 77.484 0 77.946.243.243 7.062.317 29.082.317 15.821 0 28.954-.072 29.184-.16zm-66.862-60.826c.03-12.224.123-22.6.205-23.058.082-.459.434-1.253.782-1.765.347-.512.552-1.01.456-1.107-.097-.097-.057-.144.088-.105.146.038.741-.07 1.323-.242.741-.218 4.586-.311 12.833-.312l11.774-.001-.068-21.233c-.037-11.678-.122-21.382-.19-21.564-.098-.264-16.362-.318-80.63-.265l-80.508.067-.067 36.413c-.054 28.934 0 36.467.264 36.673.184.145.92.189 1.655.1.727-.089 2.435-.073 3.795.034 2.92.23 4.112.784 5.157 2.396l.705 1.087.025 6.23c.013 3.427.003 6.754-.023 7.393-.029.724.086 1.245.307 1.385.194.123 27.737.196 61.207.162l60.854-.063.056-22.225zm-81.021 64.686c-.11-.178.355-.21 1.373-.095 2.015.227 2.12.364.277.364-.816 0-1.559-.12-1.65-.269zm53.073.175c.298-.255 1.83-.392 1.83-.164 0 .142-.436.258-.97.258-.533 0-.92-.042-.86-.094zm-47.911-5.36c0-.088.452-.713 1.004-1.388.552-.675 1.21-1.555 1.461-1.955l.457-.728h39.326l.313.688c.173.378.787 1.249 1.366 1.935.578.686 1.052 1.33 1.052 1.429 0 .1-10.12.181-22.49.181-12.369 0-22.49-.072-22.49-.161zm3.76-12.736l.076-2.58h37.306l.076 2.58.076 2.58h-37.609zm16.938-7.24c-.287-.106-.776-.716-1.085-1.355-1.221-2.522-.363-4.853 1.766-4.797.957.025 1.072-.043 1.207-.717.167-.835 1.124-1.511 1.544-1.091.17.17.161.446-.029.8-.377.706-.364.84.079.84.202 0 .625.208.939.463.549.445.554.497.139 1.33-.411.823-.405.912.128 1.815 1.02 1.73.088 2.81-2.476 2.868-.93.02-1.925-.049-2.212-.155z" fill="#8f9092"/><path d="M46.699 146.694c-1.29-.668-2.76-2.262-2.932-3.18-.124-.66-.373-36.542-.286-41.253.027-1.51-.007-3.856-.068-4.63-.145-1.828.273-13.44.509-14.14.326-.97 2.062-2.474 3.245-2.813.468-.135 2.845-.245 5.281-.245h4.43l.07-38.077.07-38.077.804-1.145c.443-.63 1.277-1.412 1.853-1.738l1.047-.594 83.023-.004c81.886-.004 83.038.003 84.039.513 1.293.66 2.315 1.875 2.663 3.167.18.668.25 8.486.205 22.94l-.068 21.927h-5.82l-.133-21.3-.132-21.298H63.368V80.3h3.968c4.63 0 5.174.194 6.678 2.377l.908 1.318-.048 7.149c-.027 3.931-.037 7.296-.023 7.478.02.262 12.521.344 61.079.397l61.052.066.075 2.54c.057 1.913-.015 2.615-.29 2.844-.273.226-15.831.32-61.062.37l-60.696.067-.132 19.315c-.132 19.263-.134 19.316-.703 20.108-.847 1.177-1.979 2.179-2.82 2.497-.485.183-4.776.28-12.303.28-9.93-.001-11.67-.06-12.352-.413zm25.93-9.706c.08-.327.112-11.013.072-23.746l-.073-23.151H45.905l-.068 23.415c-.038 12.879-.012 23.565.058 23.747.098.258 3.016.33 13.358.33h13.233zm137.826 9.354l-10.34-.16-.95-.724c-.532-.407-1.104-1.162-1.301-1.72-.288-.814-.353-9.136-.353-45.578V53.578l.552-1.058a4.24 4.24 0 0 1 1.587-1.632l1.036-.574 34.406-.078 34.406-.078.963.596c.593.366 1.198 1.075 1.573 1.842l.608 1.247-.077 44.185c-.047 26.427-.178 44.57-.327 45.143-.136.527-.506 1.285-.82 1.686-1.228 1.56-.268 1.502-26.532 1.577-13.25.037-28.744-.004-34.431-.092zm54.18-47.917c.144-30.174.114-39.098-.132-39.345-.245-.246-6.91-.276-29.553-.132l-29.236.186-.068 38.894c-.038 21.392-.012 39.043.058 39.226.1.264 6.128.318 29.437.264l29.31-.067zm-122.94 17.12c-.808-1.238-1.244-2.657-1.08-3.525.264-1.413 1.103-1.866 3.508-1.897 2.526-.033 2.95.157 2.507 1.128-.43.943-.396 1.859.081 2.255.577.479.487 1.412-.198 2.053-.491.46-.932.558-2.516.563-1.69.005-1.966-.065-2.301-.578zm2.55-6.311c.093-.621.872-1.247 1.175-.944.275.276-.451 1.512-.888 1.512-.23 0-.339-.217-.286-.568z" fill="#6a6b6c"/><path d="M48.683 146.94c-.509-.058-1.2-.168-1.537-.243-.76-.169-2.942-2.152-3.245-2.948-.124-.325-.24-13.722-.258-29.77-.036-32.06-.12-30.391 1.6-31.876 1.584-1.366 1.778-1.405 6.863-1.405 2.628 0 4.808-.03 4.842-.066.035-.037.124-17.28.199-38.318l.135-38.252.662-.977c.384-.567 1.21-1.253 1.97-1.634l1.309-.657h82.458c62.366 0 82.678.075 83.358.31 1.306.45 2.207 1.187 2.85 2.332l.566 1.007-.068 22.45-.067 22.452-2.624.076c-1.921.056-2.682-.015-2.84-.264-.12-.188-.218-9.837-.22-21.442l-.005-21.1H63.235v73.951h3.77c4.712 0 5.35.2 6.656 2.096l.977 1.42-.017 7.436-.017 7.436h60.704c33.388 0 60.893.073 61.123.16.343.132.419.636.419 2.779v2.617h-60.44c-38.63 0-60.685.094-61.119.258l-.679.259v38.286l-.811 1.226c-.447.674-1.25 1.498-1.786 1.831-.97.604-1.013.606-11.69.642-5.894.02-11.132-.012-11.642-.071zm24.086-32.905c.077-12.878.043-23.624-.076-23.878-.201-.432-1.097-.463-13.284-.463-12.03 0-13.105.036-13.526.457-.421.42-.444 1.087-.284 8.377.096 4.357.174 14.927.174 23.49v15.57l13.428-.068 13.427-.069zm127.702 31.898c-1.347-.483-1.932-1.052-2.427-2.363-.37-.977-.406-5.8-.34-45.674.072-44.298.075-44.588.61-45.5.297-.503.952-1.158 1.456-1.454.91-.535 1.193-.539 35.359-.539 34.374 0 34.444.001 35.173.546 1.178.879 1.682 1.743 1.92 3.292.124.8.152 21.24.063 45.422l-.161 43.967-.557.747c-.306.41-.961.985-1.455 1.276-.884.521-1.427.53-34.765.586-28.1.047-34.039-.005-34.877-.306zm63.922-8.416c.407-.306.442-3.27.46-39.224.01-21.392.013-39.043.006-39.225-.009-.262-6.037-.33-29.226-.33-16.068 0-29.403.072-29.633.16-.38.146-.419 3.863-.419 39.401 0 31.145.068 39.268.33 39.374.183.073 13.316.143 29.187.154 22.699.016 28.949-.05 29.295-.31zm-122.538-21.98c-.507-.61-1.097-2.249-1.097-3.045 0-.422.246-1.078.546-1.46.48-.61.738-.694 2.182-.705.901-.007 1.914-.02 2.25-.03.883-.028.97.17.585 1.339-.312.943-.292 1.125.204 1.908.519.82.525.906.112 1.605-.417.706-.526.738-2.464.738-1.361 0-2.123-.115-2.318-.35zm2.343-6.232c0-.338.778-.93.97-.738.192.193-.4.97-.738.97a.233.233 0 0 1-.232-.232z" fill="#4e4e4f"/><path d="M47.398 146.653c-.343-.065-1.266-.74-2.05-1.5-1.349-1.306-1.427-1.454-1.425-2.69.001-.72-.011-14.047-.027-29.618-.02-18.447.063-28.541.236-28.972.295-.732 1.717-2.154 2.616-2.614.365-.187 2.384-.296 5.486-.296h4.909l.07-38.299c.078-42.851-.1-39.155 1.967-40.732l.972-.741H227.45l1 .763c.55.42 1.223 1.253 1.495 1.852.47 1.035.495 2.177.5 23.248l.006 22.159h-5.556V28.099c0-16.07-.076-21.19-.317-21.431-.463-.463-160.828-.463-161.29 0-.244.243-.318 8.883-.318 37.278v36.96l4.167.168c2.47.099 4.437.301 4.829.498.364.182 1.058.92 1.543 1.642l.881 1.312-.188 4.535c-.103 2.494-.101 5.8.004 7.346l.192 2.81 61.16.067 61.159.067.079 1.981c.043 1.09.011 2.25-.071 2.58l-.15.598H74.316l.05 19.465.051 19.464-.786 1.107c-.433.609-1.307 1.375-1.943 1.702-1.15.592-1.224.596-12.411.56-6.19-.02-11.536-.09-11.879-.155zm13.324-2.455c.47-.519.462-.53-.373-.53-.47 0-1.098-.13-1.398-.291-.411-.22-.596-.21-.75.038-.112.182-.394.258-.627.168-.545-.209-.54.049.014.66.62.685 2.497.658 3.134-.045zm12.03-6.862c.182-.342.273-8.3.273-23.951v-23.44l-.595-.192c-.328-.105-6.49-.132-13.693-.06l-13.096.133-.068 23.651c-.05 17.255.013 23.749.23 24.011.245.295 2.696.36 13.487.36 12.767 0 13.196-.016 13.461-.512zm127.278 8.25c-.506-.254-1.177-.847-1.491-1.317-.526-.787-.587-1.327-.76-6.747-.104-3.24-.147-23.394-.096-44.786.092-38.275.101-38.91.622-39.935.291-.572.865-1.287 1.276-1.587.746-.545.806-.546 35.19-.546 39.077 0 35.669-.204 36.78 2.201l.573 1.238.084 43.657c.06 31.187 0 44.041-.208 45.005-.316 1.454-1.19 2.515-2.473 3-.512.193-11.34.28-34.66.28-31.762 0-33.974-.03-34.837-.462zm35.864-1.418c.182-.294-.314-.756-.812-.756-.145 0-.443.118-.661.26-.353.232-.353.29 0 .522.531.349 1.25.336 1.473-.026zm28.992-41.907c.094-19.5.237-37.183.318-39.296.08-2.113.05-4-.07-4.194-.18-.291-5.285-.319-29.687-.16-18.98.123-29.587.285-29.8.456-.474.38-.486 77.99-.012 78.465.246.245 7.067.303 29.7.25l29.38-.066zm6.81-45.966c.038-2.817-.447-4.253-1.655-4.9-.7-.374-1.545-.43-5.5-.37-2.57.04-5.01.174-5.423.298-.639.191-.532.23.703.25 2.487.045 6.222 1.427 7.698 2.85 1.028.99 2.074 2.886 2.745 4.976.187.582.497 1.415.689 1.852.344.784.35.773.53-.926.1-.946.196-2.76.213-4.03zm-129.72 59.093c-1.092-1.206-1.286-3.612-.358-4.433.492-.435.929-.517 2.514-.476 2.625.07 2.51.036 2.192.629-.404.754-.333 2.284.123 2.663.493.41.49.78-.01 1.441-.53.702-3.866.834-4.461.176zm2.619-6.38c.09-.145.216-.264.28-.264.064 0 .117.119.117.264a.273.273 0 0 1-.28.265c-.155 0-.207-.12-.117-.265z" fill="#2d2e30"/><path d="M46.964 145.939c-.437-.196-1.21-.793-1.72-1.328l-.926-.972.07-17.117c.038-9.414.13-20.45.204-24.525.287-15.742.524-11.53.652 11.553.073 13.194.231 24.089.352 24.21.318.318 26.674.413 27.164.098.338-.217.417-1.785.53-10.517l.132-10.263.197 7.673c.11 4.22.266 10.124.35 13.119l.15 5.446-.89 1.168c-.53.698-1.257 1.296-1.803 1.485-1.392.48-23.382.453-24.462-.03zm13.634-1.084c.838-.434 1.709-1.82 1.428-2.275-.095-.154-.407-.22-.693-.144-.397.103-.585-.052-.796-.658-.497-1.424-2.707-1.559-2.904-.177-.05.359-.303.646-.615.702-.291.052-.623.182-.738.29-.38.357.314 1.597 1.194 2.133 1.036.632 2.07.674 3.124.129zm-1.998-2.518c-.103-.166-.062-.426.09-.579.355-.355 1.184-.045 1.04.39-.148.442-.896.568-1.13.19zm1.812-3.365c-.487-.355-1.444-.42-2.402-.164-1.085.291-.619.495 1.13.495 1.444 0 1.65-.054 1.272-.33zm139.622 6.35c-.504-.254-1.16-.88-1.455-1.389-.536-.92-.538-1.157-.538-45.508 0-44.059.006-44.595.529-45.624.721-1.42 1.917-1.984 4.381-2.067 1.083-.036 7.535-.036 14.338 0 12.045.064 12.37.08 12.37.58 0 .282.118.587.264.677.145.09.264.325.264.522 0 .667 1.66 4.709 2.125 5.174.44.44.415.47-.5.62-.53.088-6.559.163-13.398.167-7.37.004-12.598.11-12.833.258-.35.221-.397 4.906-.397 39.56 0 34.655.047 39.34.397 39.562.564.356 58.456.33 59.068-.027.436-.254.463-1.662.463-23.633 0-21.891.12-28.18.517-27.05.132.376.334.209 1.015-.842 1.018-1.572 1.067-2.223.202-2.686-.926-.496-1.337-1.806-1.279-4.08.029-1.129 1.036-2.788 2.23-3.673.644-.478.81-.491 2.062-.17.75.191 1.506.521 1.681.733.246.295.32 8.072.32 33.661 0 33.241 0 33.278-.549 34.025-.301.411-.956.956-1.455 1.21-.85.433-3.06.463-34.906.463-31.842 0-34.057-.03-34.916-.463zm36.57-1.064c1.032-.906.025-2.507-1.577-2.507-.664 0-1.93.997-1.93 1.52 0 .353 1.006 1.322 1.588 1.531.528.19 1.348-.043 1.919-.544zm-161.55-40.189c-.098-.097-.177-1.168-.177-2.38v-2.206h121.708v4.762h-60.677c-33.373 0-60.758-.079-60.855-.176zm-30.34-17.528c0-1.014.1-1.904.22-1.979.291-.18 3.022 2.596 2.786 2.832-.1.1-.467.183-.814.183-.346 0-.981.182-1.41.404l-.781.403zm11.68-.108c-.57-.687.237-.973 2.75-.973 1.328 0 2.495.08 2.593.177.097.098-.02.395-.262.662-.357.395-.841.484-2.614.484-1.482 0-2.268-.111-2.466-.35zm1.197-6.176c-.097-.097-.174-17.153-.172-37.902l.004-37.725.595-1.05c.787-1.39 2.026-2.186 3.71-2.384.756-.089 38.225-.127 83.264-.084 77.386.074 81.935.104 82.734.541.466.255 1.18.9 1.588 1.435l.741.972.07 22.576.071 22.577h-5.036l-.004-20.836c-.002-11.46-.075-21.104-.163-21.432l-.159-.595H63.033l-.16.595c-.088.328-.161 16.996-.163 37.042l-.004 36.446h-2.47c-1.357 0-2.548-.08-2.645-.176z" fill="#030303"/></svg>